<?xml version="1.0" standalone="no"?>
<!DOCTYPE svg PUBLIC "-//W3C//DTD SVG 20010904//EN"
 "http://www.w3.org/TR/2001/REC-SVG-20010904/DTD/svg10.dtd">
<svg version="1.0" xmlns="http://www.w3.org/2000/svg"
 width="207.000000pt" height="207.000000pt" viewBox="0 0 207.000000 207.000000"
 preserveAspectRatio="xMidYMid meet">
<metadata>
Created by potrace 1.14, written by Peter Selinger 2001-2017
</metadata>
<g transform="translate(0.000000,207.000000) scale(0.100000,-0.100000)"
fill="#000000" stroke="none">
<path d="M848 1775 c-2 -2 -22 -5 -45 -8 -65 -9 -93 -18 -87 -28 3 -5 -2 -6
-10 -3 -31 12 -209 -84 -276 -149 -118 -114 -182 -217 -231 -377 -34 -107 -34
-318 -1 -435 74 -259 261 -458 504 -536 103 -33 243 -45 276 -25 7 4 12 2 12
-3 0 -7 32 -11 86 -11 53 0 83 4 79 10 -3 6 1 7 10 4 11 -5 30 9 59 41 24 26
45 46 47 45 10 -4 39 13 39 23 0 7 -4 7 -12 -1 -7 -7 -15 -12 -18 -12 -4 0 9
17 29 39 20 21 40 36 45 33 5 -3 2 -10 -7 -17 -9 -7 -13 -16 -9 -20 4 -5 1 -5
-7 0 -10 6 -12 4 -6 -5 6 -9 4 -11 -5 -5 -9 6 -11 4 -5 -5 6 -10 13 -8 28 11
10 13 21 23 23 22 14 -9 14 0 1 21 -13 20 -14 26 -3 35 7 6 17 7 21 3 5 -4 5
1 2 10 -6 18 15 42 28 30 5 -4 6 0 3 9 -4 9 -1 16 7 16 8 0 11 -7 7 -15 -3 -9
-1 -13 5 -9 12 8 75 -59 170 -179 32 -40 67 -76 78 -79 11 -3 56 -5 99 -3 l79
3 -49 60 c-26 33 -51 62 -54 65 -3 3 -35 41 -70 85 -36 44 -77 93 -92 109 -16
16 -28 34 -28 41 0 7 -9 20 -20 30 -20 19 -28 41 -10 30 6 -3 10 4 10 15 0 16
4 20 16 16 9 -3 18 -6 20 -6 3 0 2 -5 -1 -10 -4 -6 -11 -7 -17 -4 -7 4 -8 2
-4 -4 4 -7 2 -12 -3 -12 -6 0 -11 -5 -11 -11 0 -8 4 -9 13 0 8 6 17 9 20 6 4
-3 5 -2 2 2 -3 3 0 12 6 20 6 7 8 13 3 13 -5 0 -2 5 6 11 12 8 10 9 -7 4 -13
-3 -23 -4 -23 -1 0 6 25 39 53 68 9 10 14 18 10 18 -3 0 4 11 16 24 14 15 20
30 16 37 -5 7 -4 10 2 6 13 -8 86 80 77 95 -4 6 -3 8 3 5 5 -4 23 7 38 23 16
17 25 30 21 30 -4 0 4 11 18 24 15 13 26 28 26 35 0 15 -33 14 -49 -1 -9 -8
-12 -9 -7 -1 4 8 -11 10 -56 8 -92 -4 -91 -4 -84 -20 3 -8 1 -14 -4 -12 -5 1
-15 -7 -23 -17 -8 -10 -19 -16 -25 -12 -17 10 -15 26 3 26 8 0 15 5 15 11 0 5
-5 7 -10 4 -12 -8 -40 12 -40 28 0 7 4 7 12 -1 7 -7 19 -12 28 -11 9 0 6 4 -8
9 -12 5 -25 16 -28 25 -4 8 -11 15 -16 15 -6 0 -4 -7 3 -17 12 -14 12 -16 -1
-11 -8 3 -14 13 -14 22 1 9 -3 16 -8 16 -6 0 -5 6 2 15 7 8 17 15 22 15 6 0 5
-7 -2 -15 -9 -10 -9 -15 -1 -15 6 0 11 4 11 10 0 5 11 17 25 26 21 13 28 14
40 4 25 -21 36 2 14 29 -10 13 -19 20 -19 15 0 -4 7 -16 17 -26 9 -10 12 -18
6 -18 -5 0 -18 9 -29 21 -19 21 -18 21 5 40 13 10 19 19 13 19 -6 0 -17 -7
-25 -15 -8 -8 -17 -12 -20 -8 -3 3 -5 -4 -4 -15 0 -11 5 -18 9 -16 4 3 8 0 8
-7 0 -6 -8 -9 -19 -6 -14 3 -18 1 -14 -9 4 -10 0 -12 -11 -8 -9 3 -13 10 -10
15 3 5 -1 6 -9 3 -8 -3 -14 1 -14 10 0 11 7 14 22 10 21 -5 21 -3 20 83 -1 48
3 94 8 101 13 17 -1 15 -19 -3 -20 -19 -31 -19 -31 0 0 9 6 14 14 11 8 -3 11
-2 8 3 -3 5 3 12 12 14 17 4 17 5 1 6 -20 1 -24 16 -8 24 6 3 5 4 -2 3 -7 -2
-12 -11 -12 -20 2 -18 -4 -20 -25 -7 -8 5 -11 16 -8 26 4 9 11 14 16 10 19
-11 20 13 1 33 -11 12 -20 25 -20 30 0 5 -7 15 -15 22 -13 11 -14 10 -9 -3 4
-10 0 -15 -10 -13 -19 3 -34 16 -18 16 7 0 12 9 12 20 0 11 -5 19 -12 18 -7
-2 -12 2 -13 9 0 13 -13 28 -24 28 -5 0 -20 15 -35 33 -15 17 -34 32 -42 32
-8 0 -14 5 -14 11 0 5 -4 7 -10 4 -5 -3 -10 -1 -10 5 0 6 -4 8 -10 5 -5 -3
-10 -2 -10 2 0 12 -56 44 -63 37 -3 -4 -14 1 -23 11 -17 17 -18 17 -25 -1 -7
-17 -8 -17 -8 4 -1 21 -12 26 -48 25 -7 -1 -13 4 -13 9 0 6 -9 8 -20 5 -11 -3
-20 0 -20 6 0 6 -7 2 -15 -9 -13 -16 -14 -16 -9 -2 5 14 1 18 -17 18 -13 0
-59 2 -101 4 -43 2 -79 2 -80 1z m162 -29 c0 -2 -8 -10 -17 -17 -16 -13 -17
-12 -4 4 13 16 21 21 21 13z m140 -32 c0 -8 -4 -14 -10 -14 -5 0 -7 6 -4 14 4
11 -1 13 -18 10 -21 -4 -21 -3 -3 5 23 10 35 5 35 -15z m-41 -9 c3 -4 -7 -4
-22 -1 -16 3 -27 0 -27 -6 0 -6 -3 -9 -6 -5 -3 3 -3 10 0 16 6 10 43 7 55 -4z
m138 -61 c-4 -4 -9 1 -13 10 -3 9 -10 13 -15 10 -5 -3 -9 0 -9 7 0 10 -3 10
-12 1 -7 -7 -17 -12 -22 -12 -6 0 -3 5 6 11 10 5 15 16 11 25 -3 8 9 2 28 -15
18 -17 30 -33 26 -37z m53 6 c5 0 6 -8 3 -17 -6 -16 -5 -16 10 -4 12 9 17 10
17 2 0 -7 5 -9 10 -6 6 4 25 -8 42 -27 17 -18 35 -33 39 -33 5 0 8 -3 7 -6 -2
-4 5 -16 15 -26 16 -19 14 -33 -6 -33 -5 0 -6 8 -2 18 5 14 4 15 -7 4 -11 -11
-9 -16 11 -32 14 -10 32 -17 40 -15 9 1 27 -11 41 -28 14 -17 20 -28 13 -24
-6 4 -14 3 -18 -3 -4 -6 -11 -8 -16 -5 -16 11 -10 -14 10 -34 18 -18 18 -18 0
-30 -12 -7 -19 -7 -19 -1 0 5 6 10 13 10 6 0 4 5 -6 11 -9 6 -15 14 -12 19 3
5 1 12 -5 15 -8 5 -7 11 1 21 10 12 14 12 20 2 7 -10 9 -9 9 4 0 9 -4 20 -10
23 -5 3 -10 2 -10 -2 0 -5 -9 -9 -20 -10 -11 -1 -19 1 -19 5 3 19 -2 32 -12
32 -8 0 -7 -6 2 -17 12 -14 12 -16 0 -8 -10 6 -12 4 -6 -5 5 -8 4 -11 -2 -7
-12 7 -11 -23 2 -43 8 -13 6 -13 -11 0 -18 14 -18 14 -4 -4 15 -19 15 -19 -14
-1 l-29 19 12 -22 c10 -18 9 -21 -4 -16 -8 3 -13 9 -11 13 2 3 -2 17 -10 31
-7 14 -13 19 -14 12 0 -10 -4 -10 -20 0 -11 7 -19 19 -17 27 1 8 -3 16 -9 18
-25 9 -8 -35 27 -69 20 -21 34 -38 31 -38 -4 0 7 -9 23 -20 18 -12 24 -20 15
-21 -10 0 -11 -2 -2 -6 6 -2 12 -11 12 -19 0 -8 5 -14 11 -14 5 0 7 -5 4 -10
-3 -6 1 -13 9 -16 9 -3 14 -10 11 -14 -3 -5 -1 -11 5 -15 6 -4 7 -11 4 -17 -4
-7 -2 -8 4 -4 6 4 11 -1 11 -11 0 -10 2 -31 6 -48 3 -16 7 -38 8 -47 1 -9 5
-14 10 -11 4 2 5 13 2 23 -5 15 -1 18 20 16 38 -5 39 -12 6 -36 -29 -20 -43
-60 -21 -60 12 0 9 -22 -5 -32 -6 -5 -5 -8 4 -8 9 0 10 -4 4 -12 -13 -16 -13
-48 0 -48 6 0 6 -5 0 -12 -19 -25 -23 -47 -7 -41 9 3 13 0 11 -8 -2 -8 -2 -11
0 -6 5 8 23 -1 23 -12 0 -12 -34 -9 -42 3 -4 6 -6 1 -6 -11 2 -14 7 -19 17
-15 9 3 12 1 7 -6 -4 -7 -13 -12 -21 -12 -8 0 -17 -5 -21 -12 -5 -7 -3 -8 6
-3 8 5 1 -8 -14 -28 -16 -20 -30 -37 -31 -37 -2 0 -29 33 -61 73 -33 39 -61
74 -64 77 -3 3 -25 30 -50 60 -73 90 -73 90 -167 90 -82 0 -95 -6 -70 -32 7
-7 30 -35 52 -63 21 -27 44 -54 50 -60 5 -5 43 -52 84 -102 40 -51 77 -93 82
-93 5 0 9 -5 9 -12 0 -6 10 -22 21 -35 17 -17 19 -26 11 -36 -7 -8 -8 -18 -4
-22 4 -5 1 -5 -5 -1 -7 4 -13 4 -13 -1 0 -19 -109 -122 -146 -138 -89 -37
-222 -55 -316 -41 -40 6 -130 37 -155 54 -13 8 -23 10 -23 6 0 -5 -4 -4 -8 1
-4 6 -25 23 -47 40 -114 83 -210 237 -233 369 -4 23 -7 84 -6 136 2 191 97
368 257 478 42 30 113 65 119 60 2 -1 13 4 25 10 39 21 268 37 256 18 -3 -4 4
-5 16 -1 12 4 21 2 21 -4 0 -6 5 -11 11 -11 5 0 8 4 5 9 -7 11 21 8 31 -4 4
-4 2 -5 -4 -1 -7 4 -13 5 -13 2 0 -7 83 -42 89 -37 2 1 8 -3 13 -11 6 -9 8 -5
4 12 l-5 25 11 -25 c11 -27 76 -76 86 -66 3 3 -1 6 -9 6 -11 0 -11 2 1 10 14
9 12 11 -20 14 -8 0 -15 7 -15 14 0 8 -9 20 -19 28 -25 18 -15 28 32 30 52 2
54 3 47 14 -3 5 -12 7 -20 3 -8 -3 -15 0 -15 6 0 6 -5 11 -11 11 -5 0 -7 -4
-4 -10 3 -5 1 -10 -5 -10 -7 0 -10 6 -7 13 2 6 12 12 23 12 12 0 20 8 22 24 2
15 0 21 -7 16 -6 -3 -8 -12 -5 -18 4 -7 4 -9 -1 -5 -10 10 -65 -23 -65 -38 0
-18 -30 -26 -36 -9 -4 8 -10 12 -15 9 -5 -3 -12 1 -15 9 -3 9 -14 13 -27 11
-21 -4 -21 -4 -2 5 14 6 23 5 31 -5 6 -7 14 -11 17 -7 4 3 9 -2 13 -11 5 -13
10 -12 33 12 15 15 35 32 46 38 20 11 19 12 -5 40 l-25 28 33 -27 c19 -15 38
-27 42 -27z m-175 19 c-4 -5 -12 -9 -18 -8 -9 0 -8 2 1 6 6 2 9 10 6 15 -4 7
-2 8 5 4 6 -4 9 -12 6 -17z m48 14 c-7 -2 -19 -2 -25 0 -7 3 -2 5 12 5 14 0
19 -2 13 -5z m-101 -22 c-4 -10 -7 -11 -10 -3 -2 7 -9 9 -14 6 -6 -4 -8 -3 -5
3 10 16 36 11 29 -6z m74 -13 c4 -7 3 -8 -4 -4 -7 4 -12 2 -12 -5 0 -7 -3 -10
-6 -6 -6 5 3 27 11 27 2 0 7 -5 11 -12z m44 -5 c14 8 23 8 30 1 8 -8 4 -10
-11 -10 -12 1 -24 -6 -27 -14 -5 -13 -3 -13 14 0 18 14 18 14 5 -3 -13 -17
-16 -17 -26 -3 -7 9 -15 13 -19 9 -4 -4 -4 1 0 12 4 10 9 14 12 7 2 -8 8 -8
22 1z m-340 -7 c0 -3 -4 -8 -10 -11 -5 -3 -10 -1 -10 4 0 6 5 11 10 11 6 0 10
-2 10 -4z m255 -14 c-3 -3 -11 0 -18 7 -9 10 -8 11 6 5 10 -3 15 -9 12 -12z
m-100 -1 c3 -5 2 -12 -3 -15 -5 -3 -9 1 -9 9 0 17 3 19 12 6z m-80 -11 c3 -5
1 -10 -4 -10 -6 0 -11 5 -11 10 0 6 2 10 4 10 3 0 8 -4 11 -10z m240 -52 c5 4
5 1 0 -7 -7 -12 -10 -11 -20 2 -7 9 -16 13 -20 9 -5 -4 -5 -1 0 7 7 12 10 11
20 -2 7 -9 16 -13 20 -9z m303 -126 c15 11 15 11 4 -4 -9 -11 -10 -18 -2 -23
6 -3 8 -10 5 -15 -3 -5 -1 -11 5 -15 6 -4 8 -11 5 -16 -11 -18 5 -30 26 -19
15 8 19 8 17 -2 -2 -7 6 -13 17 -13 17 0 20 -7 21 -50 1 -59 -2 -66 -22 -58
-13 5 -13 8 1 23 13 14 14 19 3 24 -11 5 -11 7 0 12 10 5 10 10 -4 25 -9 10
-21 16 -27 12 -6 -4 -7 -1 -2 7 5 9 4 11 -4 6 -6 -4 -9 -12 -6 -17 4 -5 4 -9
1 -9 -2 0 -12 -3 -21 -7 -15 -5 -16 -3 -5 17 10 18 9 21 -1 15 -8 -6 -10 -4
-4 5 5 9 4 11 -3 6 -8 -5 -10 -1 -5 10 5 13 3 16 -10 11 -21 -8 -32 10 -17 28
7 8 7 15 1 19 -6 4 -7 14 -4 23 5 11 8 13 11 5 3 -10 7 -10 20 0z m-113 -14
c5 4 5 2 2 -5 -4 -6 -1 -14 5 -16 8 -3 8 -6 2 -6 -6 -1 -19 9 -30 21 -12 14
-13 18 -3 10 9 -6 20 -8 24 -4z m98 -71 c7 3 9 3 5 -2 -4 -4 -3 -14 2 -21 6
-6 9 -18 8 -25 -4 -18 40 -20 46 -2 9 23 24 6 22 -27 -1 -30 -17 -42 -25 -19
-2 6 1 9 6 6 5 -3 9 3 9 14 0 19 -1 19 -13 3 -10 -14 -13 -14 -13 -3 0 12 -2
12 -10 -1 -9 -13 -11 -13 -20 0 -7 12 -9 10 -7 -7 0 -12 5 -19 9 -17 12 8 41
-12 44 -30 1 -10 -3 -15 -9 -13 -7 3 -11 9 -10 15 2 6 -3 9 -11 6 -11 -4 -45
24 -38 33 7 9 1 23 -8 18 -6 -4 -9 -3 -8 2 1 4 -3 18 -10 31 -7 12 -9 22 -5
22 4 0 -3 9 -17 20 -18 15 -20 18 -6 13 16 -5 18 -3 13 13 -5 12 0 9 14 -9 12
-15 26 -24 32 -20z m114 -163 c0 -19 -14 -18 -26 4 -10 16 -11 15 -12 -3 -1
-11 -1 -24 0 -29 1 -5 -5 -4 -13 3 -12 10 -17 9 -26 -6 -10 -16 -10 -16 -5 4
3 12 1 24 -5 28 -6 3 -8 11 -4 16 4 6 14 3 25 -7 18 -16 25 -11 20 18 0 4 10
3 22 -3 13 -6 24 -17 24 -25z m-37 -109 c0 -8 13 -28 30 -43 16 -16 27 -32 23
-35 -3 -4 1 -15 10 -25 15 -17 15 -19 -6 -37 -12 -11 -26 -18 -31 -17 -5 2 -6
-4 -2 -13 8 -23 -22 -31 -42 -11 -12 12 -13 19 -5 27 9 9 9 18 2 31 -11 20 -4
38 14 38 7 0 6 -4 -3 -11 -13 -9 -13 -10 2 -6 9 3 19 -1 22 -9 7 -19 -4 -45
-17 -37 -6 4 -7 1 -2 -7 5 -9 4 -11 -3 -6 -7 4 -12 5 -12 2 0 -3 9 -10 20 -16
15 -8 18 -8 14 3 -3 8 2 21 10 30 8 8 12 18 8 22 -4 5 1 5 10 2 12 -4 15 -2
11 9 -4 11 -9 12 -19 3 -17 -14 -18 -6 -3 24 10 21 10 21 -5 3 -9 -11 -16 -14
-16 -8 0 7 -6 12 -14 12 -8 0 -13 8 -11 18 1 9 -2 23 -7 29 -12 15 -4 43 12
43 5 0 10 -7 10 -15z m195 -64 c-9 -8 -36 -10 -30 -2 2 4 11 8 20 8 8 0 13 -3
10 -6z m60 -40 c3 -5 2 -12 -3 -15 -5 -3 -9 1 -9 9 0 17 3 19 12 6z m-75 -81
c0 -5 -5 -10 -11 -10 -5 0 -7 5 -4 10 3 6 8 10 11 10 2 0 4 -4 4 -10z m-563
-484 c4 -4 4 -6 -2 -5 -5 2 -21 -2 -35 -9 -22 -12 -23 -11 -8 1 10 8 15 17 12
20 -3 3 1 4 10 3 8 -1 19 -6 23 -10z m-123 -22 c3 -8 2 -12 -4 -9 -6 3 -10 10
-10 16 0 14 7 11 14 -7z m36 10 c0 -8 -19 -13 -24 -6 -3 5 1 9 9 9 8 0 15 -2
15 -3z m-150 -20 c0 -8 -19 -13 -24 -6 -3 5 1 9 9 9 8 0 15 -2 15 -3z m220 2
c0 -2 -7 -7 -16 -10 -8 -3 -12 -2 -9 4 6 10 25 14 25 6z m-46 -28 c-3 -5 -10
-6 -15 -3 -5 4 -9 1 -9 -6 0 -7 -3 -10 -6 -6 -9 9 3 24 20 24 8 0 13 -4 10 -9z
m-54 -22 c0 -2 -6 -9 -14 -15 -11 -9 -16 -9 -22 0 -4 7 -3 9 4 5 6 -3 13 -2
17 4 6 10 15 14 15 6z"/>
<path d="M1294 1604 c-10 -8 -14 -13 -7 -10 6 4 14 2 18 -4 3 -5 11 -10 17
-10 6 0 5 7 -3 17 -10 11 -10 14 -1 9 6 -4 12 -2 12 3 0 15 -13 14 -36 -5z"/>
<path d="M1336 1604 c-3 -9 -1 -12 4 -9 6 3 10 0 10 -7 0 -10 3 -9 11 2 9 13
10 13 6 0 -2 -8 -10 -14 -16 -12 -6 1 -24 -4 -39 -12 -15 -8 -39 -12 -54 -11
-31 4 -36 -6 -13 -25 8 -7 12 -17 9 -22 -3 -5 0 -8 7 -7 24 4 69 -23 67 -40
-2 -9 4 -16 13 -16 9 0 24 -8 33 -18 19 -19 35 -22 37 -7 2 13 6 29 9 35 7 13
5 31 -3 42 -5 7 -5 18 -1 25 12 19 14 39 3 32 -5 -3 -6 -11 -3 -17 4 -7 3 -8
-2 -4 -5 5 -9 12 -9 15 -1 13 -36 60 -50 66 -7 2 -16 -2 -19 -10z m54 -50 c0
-8 -5 -14 -11 -14 -5 0 -8 -4 -4 -10 3 -5 11 -8 18 -6 7 1 8 1 4 -2 -4 -2 -2
-11 5 -19 18 -22 19 -43 2 -50 -8 -3 -14 -9 -14 -15 0 -5 5 -6 12 -2 7 4 8 3
4 -5 -6 -8 -18 -2 -43 21 -20 18 -46 43 -60 55 -13 13 -26 23 -28 23 -3 0 -10
0 -16 0 -5 0 -7 5 -3 12 6 9 9 9 12 0 3 -10 7 -10 20 0 13 11 14 11 7 -1 -6
-11 -4 -13 9 -8 10 4 21 7 24 7 4 0 1 4 -6 9 -11 7 -10 9 3 14 9 4 13 3 10 -3
-9 -15 12 -12 27 4 15 16 28 11 28 -10z"/>
<path d="M1337 1539 c-21 -11 -35 -24 -31 -30 3 -6 11 -3 19 8 7 10 17 15 21
10 4 -4 2 -7 -4 -7 -22 0 -12 -28 16 -49 48 -34 69 3 23 42 -25 21 -27 25 -12
35 26 17 9 13 -32 -9z m33 -27 c0 -5 -7 -9 -15 -9 -8 0 -12 4 -9 9 3 4 9 8 15
8 5 0 9 -4 9 -8z m23 -38 c-5 -14 -9 -13 -43 14 -3 3 6 1 19 -3 18 -5 22 -4
16 5 -5 8 -4 11 3 6 6 -4 9 -13 5 -22z"/>
<path d="M1447 1410 c10 -10 10 -17 1 -29 -7 -9 -8 -13 -4 -9 5 4 16 2 25 -5
14 -10 14 -10 4 4 -7 9 -11 18 -8 21 3 3 -3 11 -12 19 -15 11 -16 11 -6 -1z"/>
<path d="M1418 1349 c7 -9 10 -18 8 -20 -3 -2 3 -15 13 -28 18 -23 18 -23 16
-2 -1 12 -12 32 -25 44 -13 12 -19 15 -12 6z"/>
<path d="M1522 1045 c4 -7 5 -14 2 -17 -2 -3 2 -8 10 -11 9 -4 18 -1 22 6 4 7
4 9 -1 5 -4 -4 -15 1 -24 10 -9 10 -13 13 -9 7z"/>
<path d="M1593 1288 c1 -29 6 -56 11 -60 7 -5 7 -8 -1 -8 -7 0 -13 -5 -13 -10
0 -6 8 -5 20 2 13 8 15 15 8 19 -6 4 -12 28 -13 53 0 25 -3 48 -6 51 -4 3 -6
-18 -6 -47z"/>
<path d="M1596 1107 c-15 -11 -17 -17 -7 -35 14 -27 16 -27 18 -2 1 11 -2 18
-8 15 -5 -4 -9 -2 -9 3 0 5 10 14 23 20 12 6 17 11 11 11 -5 1 -18 -5 -28 -12z"/>
<path d="M1628 1093 c6 -2 12 -10 12 -18 0 -7 7 -18 15 -25 10 -9 15 -9 15 -1
0 6 -4 11 -9 11 -5 0 -11 9 -14 20 -3 11 -11 20 -19 19 -10 0 -10 -2 0 -6z"/>
<path d="M1621 1064 c0 -11 3 -14 6 -6 3 7 2 16 -1 19 -3 4 -6 -2 -5 -13z"/>
<path d="M1630 1025 c0 -8 2 -15 4 -15 2 0 6 7 10 15 3 8 1 15 -4 15 -6 0 -10
-7 -10 -15z"/>
<path d="M1395 452 c-3 -3 0 -11 6 -19 9 -9 8 -13 0 -14 -6 -1 -15 -3 -21 -4
-5 -1 -13 -3 -16 -4 -9 -1 16 -31 26 -31 11 0 63 56 61 66 -1 9 -48 14 -56 6z
m37 -25 c-26 -29 -50 -39 -58 -25 -4 7 -4 10 1 6 4 -4 16 -3 27 3 14 7 16 14
9 23 -8 9 -4 12 14 12 23 0 24 -1 7 -19z"/>
</g>
</svg>
