<?xml version="1.0" standalone="no"?>
 <!DOCTYPE svg PUBLIC "-//W3C//DTD SVG 1.1//EN" 
 "http://www.w3.org/Graphics/SVG/1.1/DTD/svg11.dtd"> 
<svg
  xmlns:svg="http://www.w3.org/2000/svg"
  xmlns="http://www.w3.org/2000/svg"
  xmlns:xlink="http://www.w3.org/1999/xlink"
  version="1.1"
  width="55.2704mm" height="30.0990mm" viewBox="0.0000 0.0000 55.2704 30.0990">
<title>SVG Image created as MycelNet Nano-F_Cu.svg date 2024/07/19 00:50:55 </title>
  <desc>Image generated by PCBNEW </desc>
<g style="fill:#000000; fill-opacity:1.0000;stroke:#000000; stroke-opacity:1.0000;
stroke-linecap:round; stroke-linejoin:round;"
 transform="translate(0 0) scale(1 1)">
<path style="fill:#C83434; fill-opacity:1.0000; stroke:none;fill-rule:evenodd;"
d="M 46.8905,11.9094
47.3986,12.1635
50.9501,12.1635
54.5016,12.1635
54.5016,12.9894
54.5016,13.8153
52.5957,13.8153
50.6897,13.8153
50.6897,14.1330
50.6897,14.4507
52.5957,14.4507
54.5016,14.4507
54.5016,15.2766
54.5016,16.1025
52.5957,16.1025
50.6897,16.1025
50.6897,16.4201
50.6897,16.7378
52.5957,16.7378
54.5016,16.7378
54.5016,17.5637
54.5016,18.3896
52.5957,18.3896
50.6897,18.3896
50.6897,18.7073
50.6897,19.0249
52.5957,19.0249
54.5016,19.0249
54.5016,21.1215
54.5016,23.2180
54.2475,23.2180
53.9934,23.2180
53.9934,21.3756
53.9934,19.5332
52.0874,19.5332
50.1815,19.5332
50.1815,18.7073
50.1815,17.8814
52.0874,17.8814
53.9934,17.8814
53.9934,17.5637
53.9934,17.2460
52.0874,17.2460
50.1815,17.2460
50.1815,16.4201
50.1815,15.5942
52.0874,15.5942
53.9934,15.5942
53.9934,15.2766
53.9934,14.9589
52.0874,14.9589
50.1815,14.9589
50.1815,14.1330
50.1815,13.3071
52.0874,13.3071
53.9934,13.3071
53.9934,12.9894
53.9934,12.6718
51.3250,12.6718
48.6567,12.6718
48.6567,16.1406
48.6567,19.6094
48.4026,19.6094
48.1484,19.6094
48.1484,16.1406
48.1484,12.6718
47.7608,12.6718
47.3732,12.6718
46.8778,12.9195
46.3824,13.1673
45.7407,13.1673
45.0989,13.1673
45.0989,12.4113
45.0989,11.6553
45.7407,11.6553
46.3824,11.6553
Z" /> 
<path style="fill:#C83434; fill-opacity:1.0000; stroke:none;fill-rule:evenodd;"
d="M 32.9353,1.9428
33.0309,1.9618
33.1120,2.0160
33.1662,2.0971
33.1853,2.1928
33.1853,3.1178
33.1662,3.2134
33.1120,3.2945
33.0309,3.3487
32.9353,3.3678
31.6853,3.3678
31.5896,3.3487
31.5085,3.2945
31.4543,3.2134
31.4353,3.1178
31.4353,2.1928
31.4543,2.0971
31.5085,2.0160
31.5896,1.9618
31.6853,1.9428
Z" /> 
<path style="fill:#C83434; fill-opacity:1.0000; stroke:none;fill-rule:evenodd;"
d="M 32.9353,4.9178
33.0309,4.9368
33.1120,4.9910
33.1662,5.0721
33.1853,5.1678
33.1853,6.0928
33.1662,6.1884
33.1120,6.2695
33.0309,6.3237
32.9353,6.3428
31.6853,6.3428
31.5896,6.3237
31.5085,6.2695
31.4543,6.1884
31.4353,6.0928
31.4353,5.1678
31.4543,5.0721
31.5085,4.9910
31.5896,4.9368
31.6853,4.9178
Z" /> 
<path style="fill:#C83434; fill-opacity:1.0000; stroke:none;fill-rule:evenodd;"
d="M 7.6303,28.4203
5.9303,28.4203
5.9303,26.7203
7.6303,26.7203
Z" /> 
</g>
<g style="fill:#C83434; fill-opacity:1.0000; stroke:none;">
<circle cx="9.3203" cy="27.5703" r="0.8500" /> 
<circle cx="11.8603" cy="27.5703" r="0.8500" /> 
<circle cx="14.4003" cy="27.5703" r="0.8500" /> 
<circle cx="16.9403" cy="27.5703" r="0.8500" /> 
<circle cx="19.4803" cy="27.5703" r="0.8500" /> 
<circle cx="22.0203" cy="27.5703" r="0.8500" /> 
<circle cx="24.5603" cy="27.5703" r="0.8500" /> 
<path style="fill:#C83434; fill-opacity:1.0000; stroke:none;fill-rule:evenodd;"
d="M 24.3103,8.6678
24.2922,8.7587
24.2407,8.8357
24.1637,8.8872
24.0728,8.9053
23.5728,8.9053
23.4819,8.8872
23.4048,8.8357
23.3533,8.7587
23.3353,8.6678
23.3353,8.1928
23.3533,8.1019
23.4048,8.0248
23.4819,7.9733
23.5728,7.9553
24.0728,7.9553
24.1637,7.9733
24.2407,8.0248
24.2922,8.1019
24.3103,8.1928
Z" /> 
<path style="fill:#C83434; fill-opacity:1.0000; stroke:none;fill-rule:evenodd;"
d="M 22.4853,8.6678
22.4672,8.7587
22.4157,8.8357
22.3387,8.8872
22.2478,8.9053
21.7478,8.9053
21.6569,8.8872
21.5798,8.8357
21.5283,8.7587
21.5103,8.6678
21.5103,8.1928
21.5283,8.1019
21.5798,8.0248
21.6569,7.9733
21.7478,7.9553
22.2478,7.9553
22.3387,7.9733
22.4157,8.0248
22.4672,8.1019
22.4853,8.1928
Z" /> 
<path style="fill:#C83434; fill-opacity:1.0000; stroke:none;fill-rule:evenodd;"
d="M 13.7603,15.1378
13.7422,15.2287
13.6907,15.3057
13.6137,15.3572
13.5228,15.3753
12.9228,15.3753
12.8319,15.3572
12.7548,15.3057
12.7033,15.2287
12.6853,15.1378
12.6853,14.6628
12.7033,14.5719
12.7548,14.4948
12.8319,14.4433
12.9228,14.4253
13.5228,14.4253
13.6137,14.4433
13.6907,14.4948
13.7422,14.5719
13.7603,14.6628
Z" /> 
<path style="fill:#C83434; fill-opacity:1.0000; stroke:none;fill-rule:evenodd;"
d="M 12.0353,15.1378
12.0172,15.2287
11.9657,15.3057
11.8887,15.3572
11.7978,15.3753
11.1978,15.3753
11.1069,15.3572
11.0298,15.3057
10.9783,15.2287
10.9603,15.1378
10.9603,14.6628
10.9783,14.5719
11.0298,14.4948
11.1069,14.4433
11.1978,14.4253
11.7978,14.4253
11.8887,14.4433
11.9657,14.4948
12.0172,14.5719
12.0353,14.6628
Z" /> 
<circle cx="2.8803" cy="2.7803" r="1.7500" /> 
</g>
<g style="fill:none; 
stroke:#C83434; stroke-width:0.5900; stroke-opacity:1; 
stroke-linecap:round; stroke-linejoin:round;">
<path d="M37.2703 11.1428
L35.8103 11.1428
" />
<path d="M37.2703 12.4228
L35.8103 12.4228
" />
<path d="M37.2703 13.6828
L35.8103 13.6828
" />
<path d="M37.2703 14.9528
L35.8103 14.9528
" />
<path d="M42.8103 14.9528
L41.3503 14.9528
" />
<path d="M42.8103 13.6828
L41.3503 13.6828
" />
<path d="M42.8103 12.4228
L41.3503 12.4228
" />
<path d="M42.8103 11.1428
L41.3503 11.1428
" />
</g>
<g style="fill:#C83434; fill-opacity:1.0000; stroke:none;">
<circle cx="11.0903" cy="20.2403" r="0.5000" /> 
</g>
<g style="fill:#C83434; fill-opacity:1.0000; stroke:none;">
<circle cx="13.6303" cy="20.2403" r="0.5000" /> 
<path style="fill:#C83434; fill-opacity:1.0000; stroke:none;fill-rule:evenodd;"
d="M 7.6403,3.5103
5.9403,3.5103
5.9403,1.8103
7.6403,1.8103
Z" /> 
</g>
<g style="fill:#C83434; fill-opacity:1.0000; stroke:none;">
<circle cx="9.3303" cy="2.6603" r="0.8500" /> 
<circle cx="11.8703" cy="2.6603" r="0.8500" /> 
<circle cx="14.4103" cy="2.6603" r="0.8500" /> 
<circle cx="16.9503" cy="2.6603" r="0.8500" /> 
<circle cx="19.4903" cy="2.6603" r="0.8500" /> 
<circle cx="22.0303" cy="2.6603" r="0.8500" /> 
<circle cx="24.5703" cy="2.6603" r="0.8500" /> 
<path style="fill:#C83434; fill-opacity:1.0000; stroke:none;fill-rule:evenodd;"
d="M 28.2203,18.3428
28.2383,18.2519
28.2898,18.1748
28.3669,18.1233
28.4578,18.1053
29.0578,18.1053
29.1487,18.1233
29.2257,18.1748
29.2772,18.2519
29.2953,18.3428
29.2953,18.8178
29.2772,18.9087
29.2257,18.9857
29.1487,19.0372
29.0578,19.0553
28.4578,19.0553
28.3669,19.0372
28.2898,18.9857
28.2383,18.9087
28.2203,18.8178
Z" /> 
<path style="fill:#C83434; fill-opacity:1.0000; stroke:none;fill-rule:evenodd;"
d="M 29.9453,18.3428
29.9633,18.2519
30.0148,18.1748
30.0919,18.1233
30.1828,18.1053
30.7828,18.1053
30.8737,18.1233
30.9507,18.1748
31.0022,18.2519
31.0203,18.3428
31.0203,18.8178
31.0022,18.9087
30.9507,18.9857
30.8737,19.0372
30.7828,19.0553
30.1828,19.0553
30.0919,19.0372
30.0148,18.9857
29.9633,18.9087
29.9453,18.8178
Z" /> 
<path style="fill:#C83434; fill-opacity:1.0000; stroke:none;fill-rule:evenodd;"
d="M 32.8128,8.6478
32.7947,8.7387
32.7432,8.8157
32.6662,8.8672
32.5753,8.8853
32.0753,8.8853
31.9844,8.8672
31.9073,8.8157
31.8559,8.7387
31.8378,8.6478
31.8378,8.1728
31.8559,8.0819
31.9073,8.0048
31.9844,7.9533
32.0753,7.9353
32.5753,7.9353
32.6662,7.9533
32.7432,8.0048
32.7947,8.0819
32.8128,8.1728
Z" /> 
<path style="fill:#C83434; fill-opacity:1.0000; stroke:none;fill-rule:evenodd;"
d="M 30.9878,8.6478
30.9697,8.7387
30.9182,8.8157
30.8412,8.8672
30.7503,8.8853
30.2503,8.8853
30.1594,8.8672
30.0823,8.8157
30.0308,8.7387
30.0128,8.6478
30.0128,8.1728
30.0308,8.0819
30.0823,8.0048
30.1594,7.9533
30.2503,7.9353
30.7503,7.9353
30.8412,7.9533
30.9182,8.0048
30.9697,8.0819
30.9878,8.1728
Z" /> 
<path style="fill:#C83434; fill-opacity:1.0000; stroke:none;fill-rule:evenodd;"
d="M 43.9353,11.6542
45.2053,11.6542
45.2053,13.1683
43.9353,13.1683
Z" /> 
<path style="fill:#C83434; fill-opacity:1.0000; stroke:none;fill-rule:evenodd;"
d="M 43.9303,13.4818
47.3861,13.4818
47.3861,24.5776
43.9303,24.5776
Z" /> 
<path style="fill:#C83434; fill-opacity:1.0000; stroke:none;fill-rule:evenodd;"
d="M 43.9403,9.2156
47.3861,9.2156
47.3861,11.3376
43.9403,11.3376
Z" /> 
<circle cx="48.4103" cy="19.3503" r="0.1905" /> 
<path style="fill:#C83434; fill-opacity:1.0000; stroke:none;fill-rule:evenodd;"
d="M 2.1503,12.1703
2.1503,10.4703
3.8503,10.4703
3.8503,12.1703
Z" /> 
</g>
<g style="fill:#C83434; fill-opacity:1.0000; stroke:none;">
<circle cx="3.0003" cy="13.8603" r="0.8500" /> 
<circle cx="3.0003" cy="16.4003" r="0.8500" /> 
<circle cx="3.0003" cy="18.9403" r="0.8500" /> 
<path style="fill:#C83434; fill-opacity:1.0000; stroke:none;fill-rule:evenodd;"
d="M 39.4103,18.3028
39.4283,18.2119
39.4798,18.1348
39.5569,18.0833
39.6478,18.0653
40.2478,18.0653
40.3387,18.0833
40.4157,18.1348
40.4672,18.2119
40.4853,18.3028
40.4853,18.7778
40.4672,18.8687
40.4157,18.9457
40.3387,18.9972
40.2478,19.0153
39.6478,19.0153
39.5569,18.9972
39.4798,18.9457
39.4283,18.8687
39.4103,18.7778
Z" /> 
<path style="fill:#C83434; fill-opacity:1.0000; stroke:none;fill-rule:evenodd;"
d="M 41.1353,18.3028
41.1533,18.2119
41.2048,18.1348
41.2819,18.0833
41.3728,18.0653
41.9728,18.0653
42.0637,18.0833
42.1407,18.1348
42.1922,18.2119
42.2103,18.3028
42.2103,18.7778
42.1922,18.8687
42.1407,18.9457
42.0637,18.9972
41.9728,19.0153
41.3728,19.0153
41.2819,18.9972
41.2048,18.9457
41.1533,18.8687
41.1353,18.7778
Z" /> 
<path style="fill:#C83434; fill-opacity:1.0000; stroke:none;fill-rule:evenodd;"
d="M 27.0278,11.9303
27.1187,11.9483
27.1957,11.9998
27.2472,12.0769
27.2653,12.1678
27.2653,12.6678
27.2472,12.7587
27.1957,12.8357
27.1187,12.8872
27.0278,12.9053
26.5528,12.9053
26.4619,12.8872
26.3848,12.8357
26.3333,12.7587
26.3153,12.6678
26.3153,12.1678
26.3333,12.0769
26.3848,11.9998
26.4619,11.9483
26.5528,11.9303
Z" /> 
<path style="fill:#C83434; fill-opacity:1.0000; stroke:none;fill-rule:evenodd;"
d="M 27.0278,13.7553
27.1187,13.7733
27.1957,13.8248
27.2472,13.9019
27.2653,13.9928
27.2653,14.4928
27.2472,14.5837
27.1957,14.6607
27.1187,14.7122
27.0278,14.7303
26.5528,14.7303
26.4619,14.7122
26.3848,14.6607
26.3333,14.5837
26.3153,14.4928
26.3153,13.9928
26.3333,13.9019
26.3848,13.8248
26.4619,13.7733
26.5528,13.7553
Z" /> 
<path style="fill:#C83434; fill-opacity:1.0000; stroke:none;fill-rule:evenodd;"
d="M 28.2203,21.5428
28.2383,21.4519
28.2898,21.3748
28.3669,21.3233
28.4578,21.3053
29.0578,21.3053
29.1487,21.3233
29.2257,21.3748
29.2772,21.4519
29.2953,21.5428
29.2953,22.0178
29.2772,22.1087
29.2257,22.1857
29.1487,22.2372
29.0578,22.2553
28.4578,22.2553
28.3669,22.2372
28.2898,22.1857
28.2383,22.1087
28.2203,22.0178
Z" /> 
<path style="fill:#C83434; fill-opacity:1.0000; stroke:none;fill-rule:evenodd;"
d="M 29.9453,21.5428
29.9633,21.4519
30.0148,21.3748
30.0919,21.3233
30.1828,21.3053
30.7828,21.3053
30.8737,21.3233
30.9507,21.3748
31.0022,21.4519
31.0203,21.5428
31.0203,22.0178
31.0022,22.1087
30.9507,22.1857
30.8737,22.2372
30.7828,22.2553
30.1828,22.2553
30.0919,22.2372
30.0148,22.1857
29.9633,22.1087
29.9453,22.0178
Z" /> 
<path style="fill:#C83434; fill-opacity:1.0000; stroke:none;fill-rule:evenodd;"
d="M 38.4903,4.6928
38.5084,4.6019
38.5598,4.5248
38.6369,4.4733
38.7278,4.4553
39.3278,4.4553
39.4187,4.4733
39.4957,4.5248
39.5472,4.6019
39.5653,4.6928
39.5653,5.1678
39.5472,5.2587
39.4957,5.3357
39.4187,5.3872
39.3278,5.4053
38.7278,5.4053
38.6369,5.3872
38.5598,5.3357
38.5084,5.2587
38.4903,5.1678
Z" /> 
<path style="fill:#C83434; fill-opacity:1.0000; stroke:none;fill-rule:evenodd;"
d="M 40.2153,4.6928
40.2334,4.6019
40.2848,4.5248
40.3619,4.4733
40.4528,4.4553
41.0528,4.4553
41.1437,4.4733
41.2207,4.5248
41.2722,4.6019
41.2903,4.6928
41.2903,5.1678
41.2722,5.2587
41.2207,5.3357
41.1437,5.3872
41.0528,5.4053
40.4528,5.4053
40.3619,5.3872
40.2848,5.3357
40.2334,5.2587
40.2153,5.1678
Z" /> 
<path style="fill:#C83434; fill-opacity:1.0000; stroke:none;fill-rule:evenodd;"
d="M 30.9428,16.0303
30.8519,16.0122
30.7748,15.9607
30.7233,15.8837
30.7053,15.7928
30.7053,15.2928
30.7233,15.2019
30.7748,15.1248
30.8519,15.0733
30.9428,15.0553
31.4178,15.0553
31.5087,15.0733
31.5857,15.1248
31.6372,15.2019
31.6553,15.2928
31.6553,15.7928
31.6372,15.8837
31.5857,15.9607
31.5087,16.0122
31.4178,16.0303
Z" /> 
<path style="fill:#C83434; fill-opacity:1.0000; stroke:none;fill-rule:evenodd;"
d="M 30.9428,14.2053
30.8519,14.1872
30.7748,14.1357
30.7233,14.0587
30.7053,13.9678
30.7053,13.4678
30.7233,13.3769
30.7748,13.2998
30.8519,13.2483
30.9428,13.2303
31.4178,13.2303
31.5087,13.2483
31.5857,13.2998
31.6372,13.3769
31.6553,13.4678
31.6553,13.9678
31.6372,14.0587
31.5857,14.1357
31.5087,14.1872
31.4178,14.2053
Z" /> 
<path style="fill:#C83434; fill-opacity:1.0000; stroke:none;fill-rule:evenodd;"
d="M 24.2353,20.4703
24.2162,20.5659
24.1620,20.6470
24.0809,20.7012
23.9853,20.7203
23.1603,20.7203
23.0646,20.7012
22.9835,20.6470
22.9293,20.5659
22.9103,20.4703
22.9103,19.1703
22.9293,19.0746
22.9835,18.9935
23.0646,18.9393
23.1603,18.9203
23.9853,18.9203
24.0809,18.9393
24.1620,18.9935
24.2162,19.0746
24.2353,19.1703
Z" /> 
<path style="fill:#C83434; fill-opacity:1.0000; stroke:none;fill-rule:evenodd;"
d="M 21.1103,20.4703
21.0912,20.5659
21.0370,20.6470
20.9559,20.7012
20.8603,20.7203
20.0353,20.7203
19.9396,20.7012
19.8585,20.6470
19.8043,20.5659
19.7853,20.4703
19.7853,19.1703
19.8043,19.0746
19.8585,18.9935
19.9396,18.9393
20.0353,18.9203
20.8603,18.9203
20.9559,18.9393
21.0370,18.9935
21.0912,19.0746
21.1103,19.1703
Z" /> 
<path style="fill:#C83434; fill-opacity:1.0000; stroke:none;fill-rule:evenodd;"
d="M 17.7428,21.6603
17.6519,21.6422
17.5748,21.5907
17.5234,21.5137
17.5053,21.4228
17.5053,20.8228
17.5234,20.7319
17.5748,20.6548
17.6519,20.6033
17.7428,20.5853
18.2178,20.5853
18.3087,20.6033
18.3857,20.6548
18.4372,20.7319
18.4553,20.8228
18.4553,21.4228
18.4372,21.5137
18.3857,21.5907
18.3087,21.6422
18.2178,21.6603
Z" /> 
<path style="fill:#C83434; fill-opacity:1.0000; stroke:none;fill-rule:evenodd;"
d="M 17.7428,19.9353
17.6519,19.9172
17.5748,19.8657
17.5234,19.7887
17.5053,19.6978
17.5053,19.0978
17.5234,19.0069
17.5748,18.9298
17.6519,18.8783
17.7428,18.8603
18.2178,18.8603
18.3087,18.8783
18.3857,18.9298
18.4372,19.0069
18.4553,19.0978
18.4553,19.6978
18.4372,19.7887
18.3857,19.8657
18.3087,19.9172
18.2178,19.9353
Z" /> 
<path style="fill:#C83434; fill-opacity:1.0000; stroke:none;fill-rule:evenodd;"
d="M 17.0203,8.1928
17.0383,8.1019
17.0898,8.0248
17.1669,7.9733
17.2578,7.9553
17.7578,7.9553
17.8487,7.9733
17.9257,8.0248
17.9772,8.1019
17.9953,8.1928
17.9953,8.6678
17.9772,8.7587
17.9257,8.8357
17.8487,8.8872
17.7578,8.9053
17.2578,8.9053
17.1669,8.8872
17.0898,8.8357
17.0383,8.7587
17.0203,8.6678
Z" /> 
<path style="fill:#C83434; fill-opacity:1.0000; stroke:none;fill-rule:evenodd;"
d="M 18.8453,8.1928
18.8634,8.1019
18.9148,8.0248
18.9919,7.9733
19.0828,7.9553
19.5828,7.9553
19.6737,7.9733
19.7507,8.0248
19.8022,8.1019
19.8203,8.1928
19.8203,8.6678
19.8022,8.7587
19.7507,8.8357
19.6737,8.8872
19.5828,8.9053
19.0828,8.9053
18.9919,8.8872
18.9148,8.8357
18.8634,8.7587
18.8453,8.6678
Z" /> 
<path style="fill:#C83434; fill-opacity:1.0000; stroke:none;fill-rule:evenodd;"
d="M 38.5003,8.1328
38.5183,8.0419
38.5698,7.9648
38.6469,7.9133
38.7378,7.8953
39.3378,7.8953
39.4287,7.9133
39.5057,7.9648
39.5572,8.0419
39.5753,8.1328
39.5753,8.6078
39.5572,8.6987
39.5057,8.7757
39.4287,8.8272
39.3378,8.8453
38.7378,8.8453
38.6469,8.8272
38.5698,8.7757
38.5183,8.6987
38.5003,8.6078
Z" /> 
<path style="fill:#C83434; fill-opacity:1.0000; stroke:none;fill-rule:evenodd;"
d="M 40.2253,8.1328
40.2433,8.0419
40.2948,7.9648
40.3719,7.9133
40.4628,7.8953
41.0628,7.8953
41.1537,7.9133
41.2307,7.9648
41.2822,8.0419
41.3003,8.1328
41.3003,8.6078
41.2822,8.6987
41.2307,8.7757
41.1537,8.8272
41.0628,8.8453
40.4628,8.8453
40.3719,8.8272
40.2948,8.7757
40.2433,8.6987
40.2253,8.6078
Z" /> 
<path style="fill:#C83434; fill-opacity:1.0000; stroke:none;fill-rule:evenodd;"
d="M 39.4503,21.5028
39.4684,21.4119
39.5198,21.3348
39.5969,21.2833
39.6878,21.2653
40.2878,21.2653
40.3787,21.2833
40.4557,21.3348
40.5072,21.4119
40.5253,21.5028
40.5253,21.9778
40.5072,22.0687
40.4557,22.1457
40.3787,22.1972
40.2878,22.2153
39.6878,22.2153
39.5969,22.1972
39.5198,22.1457
39.4684,22.0687
39.4503,21.9778
Z" /> 
<path style="fill:#C83434; fill-opacity:1.0000; stroke:none;fill-rule:evenodd;"
d="M 41.1753,21.5028
41.1933,21.4119
41.2448,21.3348
41.3219,21.2833
41.4128,21.2653
42.0128,21.2653
42.1037,21.2833
42.1807,21.3348
42.2322,21.4119
42.2503,21.5028
42.2503,21.9778
42.2322,22.0687
42.1807,22.1457
42.1037,22.1972
42.0128,22.2153
41.4128,22.2153
41.3219,22.1972
41.2448,22.1457
41.1933,22.0687
41.1753,21.9778
Z" /> 
<path style="fill:#C83434; fill-opacity:1.0000; stroke:none;fill-rule:evenodd;"
d="M 35.8503,8.9153
35.7546,8.8962
35.6735,8.8420
35.6193,8.7609
35.6003,8.6653
35.6003,7.8403
35.6193,7.7446
35.6735,7.6635
35.7546,7.6093
35.8503,7.5903
37.1503,7.5903
37.2459,7.6093
37.3270,7.6635
37.3812,7.7446
37.4003,7.8403
37.4003,8.6653
37.3812,8.7609
37.3270,8.8420
37.2459,8.8962
37.1503,8.9153
Z" /> 
<path style="fill:#C83434; fill-opacity:1.0000; stroke:none;fill-rule:evenodd;"
d="M 35.8503,5.7903
35.7546,5.7712
35.6735,5.7170
35.6193,5.6359
35.6003,5.5403
35.6003,4.7153
35.6193,4.6196
35.6735,4.5385
35.7546,4.4843
35.8503,4.4653
37.1503,4.4653
37.2459,4.4843
37.3270,4.5385
37.3812,4.6196
37.4003,4.7153
37.4003,5.5403
37.3812,5.6359
37.3270,5.7170
37.2459,5.7712
37.1503,5.7903
Z" /> 
<path style="fill:#C83434; fill-opacity:1.0000; stroke:none;fill-rule:evenodd;"
d="M 32.8603,22.2203
32.8603,20.4203
34.9603,20.4203
34.9603,22.2203
Z" /> 
<path style="fill:#C83434; fill-opacity:1.0000; stroke:none;fill-rule:evenodd;"
d="M 35.7603,22.2203
35.7603,20.4203
37.8603,20.4203
37.8603,22.2203
Z" /> 
<path style="fill:#C83434; fill-opacity:1.0000; stroke:none;fill-rule:evenodd;"
d="M 35.7603,19.9203
35.7603,18.1203
37.8603,18.1203
37.8603,19.9203
Z" /> 
<path style="fill:#C83434; fill-opacity:1.0000; stroke:none;fill-rule:evenodd;"
d="M 32.8603,19.9203
32.8603,18.1203
34.9603,18.1203
34.9603,19.9203
Z" /> 
<path style="fill:#C83434; fill-opacity:1.0000; stroke:none;fill-rule:evenodd;"
d="M 15.9453,17.6103
15.9070,17.6027
15.8746,17.5810
15.8529,17.5485
15.8453,17.5103
15.8453,16.2353
15.8529,16.1970
15.8746,16.1646
15.9070,16.1429
15.9453,16.1353
16.1453,16.1353
16.1835,16.1429
16.2160,16.1646
16.2377,16.1970
16.2453,16.2353
16.2453,17.5103
16.2377,17.5485
16.2160,17.5810
16.1835,17.6027
16.1453,17.6103
Z" /> 
<path style="fill:#C83434; fill-opacity:1.0000; stroke:none;fill-rule:evenodd;"
d="M 16.5953,17.6103
16.5570,17.6027
16.5246,17.5810
16.5029,17.5485
16.4953,17.5103
16.4953,16.2353
16.5029,16.1970
16.5246,16.1646
16.5570,16.1429
16.5953,16.1353
16.7953,16.1353
16.8335,16.1429
16.8660,16.1646
16.8877,16.1970
16.8953,16.2353
16.8953,17.5103
16.8877,17.5485
16.8660,17.5810
16.8335,17.6027
16.7953,17.6103
Z" /> 
<path style="fill:#C83434; fill-opacity:1.0000; stroke:none;fill-rule:evenodd;"
d="M 17.2453,17.6103
17.2070,17.6027
17.1746,17.5810
17.1529,17.5485
17.1453,17.5103
17.1453,16.2353
17.1529,16.1970
17.1746,16.1646
17.2070,16.1429
17.2453,16.1353
17.4453,16.1353
17.4835,16.1429
17.5160,16.1646
17.5377,16.1970
17.5453,16.2353
17.5453,17.5103
17.5377,17.5485
17.5160,17.5810
17.4835,17.6027
17.4453,17.6103
Z" /> 
<path style="fill:#C83434; fill-opacity:1.0000; stroke:none;fill-rule:evenodd;"
d="M 17.8953,17.6103
17.8570,17.6027
17.8246,17.5810
17.8029,17.5485
17.7953,17.5103
17.7953,16.2353
17.8029,16.1970
17.8246,16.1646
17.8570,16.1429
17.8953,16.1353
18.0953,16.1353
18.1335,16.1429
18.1660,16.1646
18.1877,16.1970
18.1953,16.2353
18.1953,17.5103
18.1877,17.5485
18.1660,17.5810
18.1335,17.6027
18.0953,17.6103
Z" /> 
<path style="fill:#C83434; fill-opacity:1.0000; stroke:none;fill-rule:evenodd;"
d="M 18.5453,17.6103
18.5070,17.6027
18.4746,17.5810
18.4529,17.5485
18.4453,17.5103
18.4453,16.2353
18.4529,16.1970
18.4746,16.1646
18.5070,16.1429
18.5453,16.1353
18.7453,16.1353
18.7835,16.1429
18.8160,16.1646
18.8377,16.1970
18.8453,16.2353
18.8453,17.5103
18.8377,17.5485
18.8160,17.5810
18.7835,17.6027
18.7453,17.6103
Z" /> 
<path style="fill:#C83434; fill-opacity:1.0000; stroke:none;fill-rule:evenodd;"
d="M 19.1953,17.6103
19.1570,17.6027
19.1246,17.5810
19.1029,17.5485
19.0953,17.5103
19.0953,16.2353
19.1029,16.1970
19.1246,16.1646
19.1570,16.1429
19.1953,16.1353
19.3953,16.1353
19.4335,16.1429
19.4660,16.1646
19.4877,16.1970
19.4953,16.2353
19.4953,17.5103
19.4877,17.5485
19.4660,17.5810
19.4335,17.6027
19.3953,17.6103
Z" /> 
<path style="fill:#C83434; fill-opacity:1.0000; stroke:none;fill-rule:evenodd;"
d="M 19.8453,17.6103
19.8070,17.6027
19.7746,17.5810
19.7529,17.5485
19.7453,17.5103
19.7453,16.2353
19.7529,16.1970
19.7746,16.1646
19.8070,16.1429
19.8453,16.1353
20.0453,16.1353
20.0835,16.1429
20.1160,16.1646
20.1377,16.1970
20.1453,16.2353
20.1453,17.5103
20.1377,17.5485
20.1160,17.5810
20.0835,17.6027
20.0453,17.6103
Z" /> 
<path style="fill:#C83434; fill-opacity:1.0000; stroke:none;fill-rule:evenodd;"
d="M 20.4953,17.6103
20.4570,17.6027
20.4246,17.5810
20.4029,17.5485
20.3953,17.5103
20.3953,16.2353
20.4029,16.1970
20.4246,16.1646
20.4570,16.1429
20.4953,16.1353
20.6953,16.1353
20.7335,16.1429
20.7660,16.1646
20.7877,16.1970
20.7953,16.2353
20.7953,17.5103
20.7877,17.5485
20.7660,17.5810
20.7335,17.6027
20.6953,17.6103
Z" /> 
<path style="fill:#C83434; fill-opacity:1.0000; stroke:none;fill-rule:evenodd;"
d="M 21.1453,17.6103
21.1070,17.6027
21.0746,17.5810
21.0529,17.5485
21.0453,17.5103
21.0453,16.2353
21.0529,16.1970
21.0746,16.1646
21.1070,16.1429
21.1453,16.1353
21.3453,16.1353
21.3835,16.1429
21.4160,16.1646
21.4377,16.1970
21.4453,16.2353
21.4453,17.5103
21.4377,17.5485
21.4160,17.5810
21.3835,17.6027
21.3453,17.6103
Z" /> 
<path style="fill:#C83434; fill-opacity:1.0000; stroke:none;fill-rule:evenodd;"
d="M 21.7953,17.6103
21.7570,17.6027
21.7246,17.5810
21.7029,17.5485
21.6953,17.5103
21.6953,16.2353
21.7029,16.1970
21.7246,16.1646
21.7570,16.1429
21.7953,16.1353
21.9953,16.1353
22.0335,16.1429
22.0660,16.1646
22.0877,16.1970
22.0953,16.2353
22.0953,17.5103
22.0877,17.5485
22.0660,17.5810
22.0335,17.6027
21.9953,17.6103
Z" /> 
<path style="fill:#C83434; fill-opacity:1.0000; stroke:none;fill-rule:evenodd;"
d="M 21.7953,11.8853
21.7570,11.8777
21.7246,11.8560
21.7029,11.8235
21.6953,11.7853
21.6953,10.5103
21.7029,10.4720
21.7246,10.4396
21.7570,10.4179
21.7953,10.4103
21.9953,10.4103
22.0335,10.4179
22.0660,10.4396
22.0877,10.4720
22.0953,10.5103
22.0953,11.7853
22.0877,11.8235
22.0660,11.8560
22.0335,11.8777
21.9953,11.8853
Z" /> 
<path style="fill:#C83434; fill-opacity:1.0000; stroke:none;fill-rule:evenodd;"
d="M 21.1453,11.8853
21.1070,11.8777
21.0746,11.8560
21.0529,11.8235
21.0453,11.7853
21.0453,10.5103
21.0529,10.4720
21.0746,10.4396
21.1070,10.4179
21.1453,10.4103
21.3453,10.4103
21.3835,10.4179
21.4160,10.4396
21.4377,10.4720
21.4453,10.5103
21.4453,11.7853
21.4377,11.8235
21.4160,11.8560
21.3835,11.8777
21.3453,11.8853
Z" /> 
<path style="fill:#C83434; fill-opacity:1.0000; stroke:none;fill-rule:evenodd;"
d="M 20.4953,11.8853
20.4570,11.8777
20.4246,11.8560
20.4029,11.8235
20.3953,11.7853
20.3953,10.5103
20.4029,10.4720
20.4246,10.4396
20.4570,10.4179
20.4953,10.4103
20.6953,10.4103
20.7335,10.4179
20.7660,10.4396
20.7877,10.4720
20.7953,10.5103
20.7953,11.7853
20.7877,11.8235
20.7660,11.8560
20.7335,11.8777
20.6953,11.8853
Z" /> 
<path style="fill:#C83434; fill-opacity:1.0000; stroke:none;fill-rule:evenodd;"
d="M 19.8453,11.8853
19.8070,11.8777
19.7746,11.8560
19.7529,11.8235
19.7453,11.7853
19.7453,10.5103
19.7529,10.4720
19.7746,10.4396
19.8070,10.4179
19.8453,10.4103
20.0453,10.4103
20.0835,10.4179
20.1160,10.4396
20.1377,10.4720
20.1453,10.5103
20.1453,11.7853
20.1377,11.8235
20.1160,11.8560
20.0835,11.8777
20.0453,11.8853
Z" /> 
<path style="fill:#C83434; fill-opacity:1.0000; stroke:none;fill-rule:evenodd;"
d="M 19.1953,11.8853
19.1570,11.8777
19.1246,11.8560
19.1029,11.8235
19.0953,11.7853
19.0953,10.5103
19.1029,10.4720
19.1246,10.4396
19.1570,10.4179
19.1953,10.4103
19.3953,10.4103
19.4335,10.4179
19.4660,10.4396
19.4877,10.4720
19.4953,10.5103
19.4953,11.7853
19.4877,11.8235
19.4660,11.8560
19.4335,11.8777
19.3953,11.8853
Z" /> 
<path style="fill:#C83434; fill-opacity:1.0000; stroke:none;fill-rule:evenodd;"
d="M 18.5453,11.8853
18.5070,11.8777
18.4746,11.8560
18.4529,11.8235
18.4453,11.7853
18.4453,10.5103
18.4529,10.4720
18.4746,10.4396
18.5070,10.4179
18.5453,10.4103
18.7453,10.4103
18.7835,10.4179
18.8160,10.4396
18.8377,10.4720
18.8453,10.5103
18.8453,11.7853
18.8377,11.8235
18.8160,11.8560
18.7835,11.8777
18.7453,11.8853
Z" /> 
<path style="fill:#C83434; fill-opacity:1.0000; stroke:none;fill-rule:evenodd;"
d="M 17.8953,11.8853
17.8570,11.8777
17.8246,11.8560
17.8029,11.8235
17.7953,11.7853
17.7953,10.5103
17.8029,10.4720
17.8246,10.4396
17.8570,10.4179
17.8953,10.4103
18.0953,10.4103
18.1335,10.4179
18.1660,10.4396
18.1877,10.4720
18.1953,10.5103
18.1953,11.7853
18.1877,11.8235
18.1660,11.8560
18.1335,11.8777
18.0953,11.8853
Z" /> 
<path style="fill:#C83434; fill-opacity:1.0000; stroke:none;fill-rule:evenodd;"
d="M 17.2453,11.8853
17.2070,11.8777
17.1746,11.8560
17.1529,11.8235
17.1453,11.7853
17.1453,10.5103
17.1529,10.4720
17.1746,10.4396
17.2070,10.4179
17.2453,10.4103
17.4453,10.4103
17.4835,10.4179
17.5160,10.4396
17.5377,10.4720
17.5453,10.5103
17.5453,11.7853
17.5377,11.8235
17.5160,11.8560
17.4835,11.8777
17.4453,11.8853
Z" /> 
<path style="fill:#C83434; fill-opacity:1.0000; stroke:none;fill-rule:evenodd;"
d="M 16.5953,11.8853
16.5570,11.8777
16.5246,11.8560
16.5029,11.8235
16.4953,11.7853
16.4953,10.5103
16.5029,10.4720
16.5246,10.4396
16.5570,10.4179
16.5953,10.4103
16.7953,10.4103
16.8335,10.4179
16.8660,10.4396
16.8877,10.4720
16.8953,10.5103
16.8953,11.7853
16.8877,11.8235
16.8660,11.8560
16.8335,11.8777
16.7953,11.8853
Z" /> 
<path style="fill:#C83434; fill-opacity:1.0000; stroke:none;fill-rule:evenodd;"
d="M 15.9453,11.8853
15.9070,11.8777
15.8746,11.8560
15.8529,11.8235
15.8453,11.7853
15.8453,10.5103
15.8529,10.4720
15.8746,10.4396
15.9070,10.4179
15.9453,10.4103
16.1453,10.4103
16.1835,10.4179
16.2160,10.4396
16.2377,10.4720
16.2453,10.5103
16.2453,11.7853
16.2377,11.8235
16.2160,11.8560
16.1835,11.8777
16.1453,11.8853
Z" /> 
<path style="fill:#C83434; fill-opacity:1.0000; stroke:none;fill-rule:evenodd;"
d="M 10.9603,16.9928
10.9783,16.9019
11.0298,16.8248
11.1069,16.7734
11.1978,16.7553
11.7978,16.7553
11.8887,16.7734
11.9657,16.8248
12.0172,16.9019
12.0353,16.9928
12.0353,17.4678
12.0172,17.5587
11.9657,17.6357
11.8887,17.6872
11.7978,17.7053
11.1978,17.7053
11.1069,17.6872
11.0298,17.6357
10.9783,17.5587
10.9603,17.4678
Z" /> 
<path style="fill:#C83434; fill-opacity:1.0000; stroke:none;fill-rule:evenodd;"
d="M 12.6853,16.9928
12.7033,16.9019
12.7548,16.8248
12.8319,16.7734
12.9228,16.7553
13.5228,16.7553
13.6137,16.7734
13.6907,16.8248
13.7422,16.9019
13.7603,16.9928
13.7603,17.4678
13.7422,17.5587
13.6907,17.6357
13.6137,17.6872
13.5228,17.7053
12.9228,17.7053
12.8319,17.6872
12.7548,17.6357
12.7033,17.5587
12.6853,17.4678
Z" /> 
<circle cx="2.8803" cy="27.2303" r="1.7500" /> 
</g>
<g style="fill:#ECECEC; fill-opacity:1.0000; stroke:none;">
<circle cx="44.7103" cy="29.4303" r="0.2000" /> 
</g>
<g style="fill:#ECECEC; fill-opacity:1.0000; stroke:none;">
<circle cx="47.0903" cy="7.8703" r="0.2000" /> 
</g>
<g style="fill:#ECECEC; fill-opacity:1.0000; stroke:none;">
<circle cx="42.2903" cy="2.2903" r="0.2000" /> 
</g>
<g style="fill:#ECECEC; fill-opacity:1.0000; stroke:none;">
<circle cx="47.1103" cy="21.7603" r="0.2000" /> 
</g>
<g style="fill:#ECECEC; fill-opacity:1.0000; stroke:none;">
<circle cx="43.1003" cy="28.1903" r="0.2000" /> 
</g>
<g style="fill:#ECECEC; fill-opacity:1.0000; stroke:none;">
<circle cx="47.0903" cy="10.2603" r="0.2000" /> 
</g>
<g style="fill:#ECECEC; fill-opacity:1.0000; stroke:none;">
<circle cx="47.1003" cy="6.2703" r="0.2000" /> 
</g>
<g style="fill:#ECECEC; fill-opacity:1.0000; stroke:none;">
<circle cx="47.1203" cy="3.8403" r="0.2000" /> 
</g>
<g style="fill:#ECECEC; fill-opacity:1.0000; stroke:none;">
<circle cx="47.1103" cy="19.3703" r="0.2000" /> 
</g>
<g style="fill:#ECECEC; fill-opacity:1.0000; stroke:none;">
<circle cx="41.5003" cy="0.6803" r="0.2000" /> 
</g>
<g style="fill:#ECECEC; fill-opacity:1.0000; stroke:none;">
<circle cx="43.8703" cy="11.0503" r="0.2000" /> 
</g>
<g style="fill:#ECECEC; fill-opacity:1.0000; stroke:none;">
<circle cx="42.3203" cy="9.6903" r="0.2000" /> 
</g>
<g style="fill:#ECECEC; fill-opacity:1.0000; stroke:none;">
<circle cx="41.5403" cy="24.5603" r="0.2000" /> 
</g>
<g style="fill:#ECECEC; fill-opacity:1.0000; stroke:none;">
<circle cx="47.0903" cy="25.7603" r="0.2000" /> 
</g>
<g style="fill:#ECECEC; fill-opacity:1.0000; stroke:none;">
<circle cx="42.3203" cy="5.9203" r="0.2000" /> 
</g>
<g style="fill:#ECECEC; fill-opacity:1.0000; stroke:none;">
<circle cx="42.3203" cy="7.8903" r="0.2000" /> 
</g>
<g style="fill:#ECECEC; fill-opacity:1.0000; stroke:none;">
<circle cx="46.2403" cy="24.5603" r="0.2000" /> 
</g>
<g style="fill:#ECECEC; fill-opacity:1.0000; stroke:none;">
<circle cx="45.4903" cy="7.8903" r="0.2000" /> 
</g>
<g style="fill:#ECECEC; fill-opacity:1.0000; stroke:none;">
<circle cx="47.1003" cy="18.5803" r="0.2000" /> 
</g>
<g style="fill:#ECECEC; fill-opacity:1.0000; stroke:none;">
<circle cx="47.1003" cy="14.5803" r="0.2000" /> 
</g>
<g style="fill:#ECECEC; fill-opacity:1.0000; stroke:none;">
<circle cx="47.1103" cy="20.1603" r="0.2000" /> 
</g>
<g style="fill:#ECECEC; fill-opacity:1.0000; stroke:none;">
<circle cx="47.1203" cy="4.6303" r="0.2000" /> 
</g>
<g style="fill:#ECECEC; fill-opacity:1.0000; stroke:none;">
<circle cx="41.5403" cy="22.8203" r="0.2000" /> 
</g>
<g style="fill:#ECECEC; fill-opacity:1.0000; stroke:none;">
<circle cx="43.0803" cy="0.6703" r="0.2000" /> 
</g>
<g style="fill:#ECECEC; fill-opacity:1.0000; stroke:none;">
<circle cx="47.1103" cy="3.0503" r="0.2000" /> 
</g>
<g style="fill:#ECECEC; fill-opacity:1.0000; stroke:none;">
<circle cx="30.0103" cy="23.0303" r="0.4000" /> 
</g>
<g style="fill:#ECECEC; fill-opacity:1.0000; stroke:none;">
<circle cx="44.6703" cy="22.8103" r="0.2000" /> 
</g>
<g style="fill:#ECECEC; fill-opacity:1.0000; stroke:none;">
<circle cx="44.6403" cy="15.4103" r="0.2000" /> 
</g>
<g style="fill:#ECECEC; fill-opacity:1.0000; stroke:none;">
<circle cx="39.9603" cy="24.5603" r="0.2000" /> 
</g>
<g style="fill:#ECECEC; fill-opacity:1.0000; stroke:none;">
<circle cx="47.0903" cy="23.3703" r="0.2000" /> 
</g>
<g style="fill:#ECECEC; fill-opacity:1.0000; stroke:none;">
<circle cx="43.8703" cy="13.7803" r="0.2000" /> 
</g>
<g style="fill:#ECECEC; fill-opacity:1.0000; stroke:none;">
<circle cx="45.4703" cy="0.6703" r="0.2000" /> 
</g>
<g style="fill:#ECECEC; fill-opacity:1.0000; stroke:none;">
<circle cx="43.9003" cy="7.8903" r="0.2000" /> 
</g>
<g style="fill:#ECECEC; fill-opacity:1.0000; stroke:none;">
<circle cx="47.1003" cy="26.5503" r="0.2000" /> 
</g>
<g style="fill:#ECECEC; fill-opacity:1.0000; stroke:none;">
<circle cx="33.2903" cy="17.3303" r="0.4000" /> 
</g>
<g style="fill:#ECECEC; fill-opacity:1.0000; stroke:none;">
<circle cx="44.6803" cy="28.1903" r="0.2000" /> 
</g>
<g style="fill:#ECECEC; fill-opacity:1.0000; stroke:none;">
<circle cx="40.7303" cy="3.9003" r="0.2000" /> 
</g>
<g style="fill:#ECECEC; fill-opacity:1.0000; stroke:none;">
<circle cx="39.9303" cy="26.2203" r="0.2000" /> 
</g>
<g style="fill:#ECECEC; fill-opacity:1.0000; stroke:none;">
<circle cx="47.1103" cy="2.2603" r="0.2000" /> 
</g>
<g style="fill:#ECECEC; fill-opacity:1.0000; stroke:none;">
<circle cx="42.3203" cy="29.4303" r="0.2000" /> 
</g>
<g style="fill:#ECECEC; fill-opacity:1.0000; stroke:none;">
<circle cx="46.2603" cy="21.0103" r="0.2000" /> 
</g>
<g style="fill:#ECECEC; fill-opacity:1.0000; stroke:none;">
<circle cx="43.0803" cy="26.1703" r="0.2000" /> 
</g>
<g style="fill:#ECECEC; fill-opacity:1.0000; stroke:none;">
<circle cx="47.1003" cy="7.0403" r="0.2000" /> 
</g>
<g style="fill:#ECECEC; fill-opacity:1.0000; stroke:none;">
<circle cx="39.9903" cy="28.1903" r="0.2000" /> 
</g>
<g style="fill:#ECECEC; fill-opacity:1.0000; stroke:none;">
<circle cx="47.1003" cy="1.4703" r="0.2000" /> 
</g>
<g style="fill:#ECECEC; fill-opacity:1.0000; stroke:none;">
<circle cx="45.4703" cy="3.9003" r="0.2000" /> 
</g>
<g style="fill:#ECECEC; fill-opacity:1.0000; stroke:none;">
<circle cx="46.2303" cy="15.4103" r="0.2000" /> 
</g>
<g style="fill:#ECECEC; fill-opacity:1.0000; stroke:none;">
<circle cx="43.8703" cy="0.6603" r="0.2000" /> 
</g>
<g style="fill:#ECECEC; fill-opacity:1.0000; stroke:none;">
<circle cx="40.7503" cy="9.6903" r="0.2000" /> 
</g>
<g style="fill:#ECECEC; fill-opacity:1.0000; stroke:none;">
<circle cx="45.4503" cy="13.7703" r="0.2000" /> 
</g>
<g style="fill:#ECECEC; fill-opacity:1.0000; stroke:none;">
<circle cx="40.7503" cy="5.9203" r="0.2000" /> 
</g>
<g style="fill:#ECECEC; fill-opacity:1.0000; stroke:none;">
<circle cx="47.0803" cy="9.4703" r="0.2000" /> 
</g>
<g style="fill:#ECECEC; fill-opacity:1.0000; stroke:none;">
<circle cx="47.1003" cy="16.9703" r="0.2000" /> 
</g>
<g style="fill:#ECECEC; fill-opacity:1.0000; stroke:none;">
<circle cx="44.6603" cy="13.7703" r="0.2000" /> 
</g>
<g style="fill:#ECECEC; fill-opacity:1.0000; stroke:none;">
<circle cx="45.4903" cy="5.9203" r="0.2000" /> 
</g>
<g style="fill:#ECECEC; fill-opacity:1.0000; stroke:none;">
<circle cx="47.1003" cy="20.9703" r="0.2000" /> 
</g>
<g style="fill:#ECECEC; fill-opacity:1.0000; stroke:none;">
<circle cx="42.3003" cy="3.9003" r="0.2000" /> 
</g>
<g style="fill:#ECECEC; fill-opacity:1.0000; stroke:none;">
<circle cx="43.0903" cy="22.8103" r="0.2000" /> 
</g>
<g style="fill:#ECECEC; fill-opacity:1.0000; stroke:none;">
<circle cx="47.0903" cy="11.0603" r="0.2000" /> 
</g>
<g style="fill:#ECECEC; fill-opacity:1.0000; stroke:none;">
<circle cx="43.1303" cy="29.4403" r="0.2000" /> 
</g>
<g style="fill:#ECECEC; fill-opacity:1.0000; stroke:none;">
<circle cx="43.0703" cy="24.5603" r="0.2000" /> 
</g>
<g style="fill:#ECECEC; fill-opacity:1.0000; stroke:none;">
<circle cx="40.7203" cy="2.2903" r="0.2000" /> 
</g>
<g style="fill:#ECECEC; fill-opacity:1.0000; stroke:none;">
<circle cx="47.1003" cy="28.9803" r="0.2000" /> 
</g>
<g style="fill:#ECECEC; fill-opacity:1.0000; stroke:none;">
<circle cx="47.1003" cy="17.7603" r="0.2000" /> 
</g>
<g style="fill:#ECECEC; fill-opacity:1.0000; stroke:none;">
<circle cx="40.7403" cy="29.4403" r="0.2000" /> 
</g>
<g style="fill:#ECECEC; fill-opacity:1.0000; stroke:none;">
<circle cx="46.2603" cy="13.7803" r="0.2000" /> 
</g>
<g style="fill:#ECECEC; fill-opacity:1.0000; stroke:none;">
<circle cx="46.2603" cy="11.0503" r="0.2000" /> 
</g>
<g style="fill:#ECECEC; fill-opacity:1.0000; stroke:none;">
<circle cx="37.6103" cy="23.1003" r="0.4000" /> 
</g>
<g style="fill:#ECECEC; fill-opacity:1.0000; stroke:none;">
<circle cx="43.8703" cy="2.2903" r="0.2000" /> 
</g>
<g style="fill:#ECECEC; fill-opacity:1.0000; stroke:none;">
<circle cx="46.2403" cy="17.0203" r="0.2000" /> 
</g>
<g style="fill:#ECECEC; fill-opacity:1.0000; stroke:none;">
<circle cx="11.4978" cy="16.0803" r="0.4000" /> 
</g>
<g style="fill:#ECECEC; fill-opacity:1.0000; stroke:none;">
<circle cx="39.9603" cy="22.8203" r="0.2000" /> 
</g>
<g style="fill:#ECECEC; fill-opacity:1.0000; stroke:none;">
<circle cx="23.1503" cy="21.7003" r="0.4000" /> 
</g>
<g style="fill:#ECECEC; fill-opacity:1.0000; stroke:none;">
<circle cx="45.4903" cy="9.6903" r="0.2000" /> 
</g>
<g style="fill:#ECECEC; fill-opacity:1.0000; stroke:none;">
<circle cx="40.7103" cy="0.6803" r="0.2000" /> 
</g>
<g style="fill:#ECECEC; fill-opacity:1.0000; stroke:none;">
<circle cx="43.8803" cy="3.9003" r="0.2000" /> 
</g>
<g style="fill:#ECECEC; fill-opacity:1.0000; stroke:none;">
<circle cx="31.0603" cy="17.3803" r="0.4000" /> 
</g>
<g style="fill:#ECECEC; fill-opacity:1.0000; stroke:none;">
<circle cx="35.6803" cy="3.3803" r="0.4000" /> 
</g>
<g style="fill:#ECECEC; fill-opacity:1.0000; stroke:none;">
<circle cx="43.9003" cy="9.6903" r="0.2000" /> 
</g>
<g style="fill:#ECECEC; fill-opacity:1.0000; stroke:none;">
<circle cx="41.5303" cy="26.1903" r="0.2000" /> 
</g>
<g style="fill:#ECECEC; fill-opacity:1.0000; stroke:none;">
<circle cx="43.0903" cy="19.0403" r="0.2000" /> 
</g>
<g style="fill:#ECECEC; fill-opacity:1.0000; stroke:none;">
<circle cx="44.6703" cy="21.0103" r="0.2000" /> 
</g>
<g style="fill:#ECECEC; fill-opacity:1.0000; stroke:none;">
<circle cx="46.3003" cy="0.6803" r="0.2000" /> 
</g>
<g style="fill:#ECECEC; fill-opacity:1.0000; stroke:none;">
<circle cx="47.1003" cy="28.1903" r="0.2000" /> 
</g>
<g style="fill:#ECECEC; fill-opacity:1.0000; stroke:none;">
<circle cx="27.4603" cy="15.5303" r="0.4000" /> 
</g>
<g style="fill:#ECECEC; fill-opacity:1.0000; stroke:none;">
<circle cx="46.2603" cy="22.8103" r="0.2000" /> 
</g>
<g style="fill:#ECECEC; fill-opacity:1.0000; stroke:none;">
<circle cx="41.5703" cy="28.1903" r="0.2000" /> 
</g>
<g style="fill:#ECECEC; fill-opacity:1.0000; stroke:none;">
<circle cx="47.1003" cy="0.6803" r="0.2000" /> 
</g>
<g style="fill:#ECECEC; fill-opacity:1.0000; stroke:none;">
<circle cx="17.4603" cy="22.5003" r="0.4000" /> 
</g>
<g style="fill:#ECECEC; fill-opacity:1.0000; stroke:none;">
<circle cx="34.5203" cy="2.1503" r="0.4000" /> 
</g>
<g style="fill:#ECECEC; fill-opacity:1.0000; stroke:none;">
<circle cx="47.1003" cy="24.9503" r="0.2000" /> 
</g>
<g style="fill:#ECECEC; fill-opacity:1.0000; stroke:none;">
<circle cx="47.1003" cy="15.3703" r="0.2000" /> 
</g>
<g style="fill:#ECECEC; fill-opacity:1.0000; stroke:none;">
<circle cx="46.3503" cy="29.4303" r="0.2000" /> 
</g>
<g style="fill:#ECECEC; fill-opacity:1.0000; stroke:none;">
<circle cx="47.1103" cy="22.5503" r="0.2000" /> 
</g>
<g style="fill:#ECECEC; fill-opacity:1.0000; stroke:none;">
<circle cx="43.9203" cy="29.4303" r="0.2000" /> 
</g>
<g style="fill:#ECECEC; fill-opacity:1.0000; stroke:none;">
<circle cx="44.6703" cy="19.0403" r="0.2000" /> 
</g>
<g style="fill:#ECECEC; fill-opacity:1.0000; stroke:none;">
<circle cx="46.2503" cy="26.1703" r="0.2000" /> 
</g>
<g style="fill:#ECECEC; fill-opacity:1.0000; stroke:none;">
<circle cx="47.1003" cy="27.3403" r="0.2000" /> 
</g>
<g style="fill:#ECECEC; fill-opacity:1.0000; stroke:none;">
<circle cx="41.5303" cy="29.4303" r="0.2000" /> 
</g>
<g style="fill:#ECECEC; fill-opacity:1.0000; stroke:none;">
<circle cx="43.0903" cy="21.0103" r="0.2000" /> 
</g>
<g style="fill:#ECECEC; fill-opacity:1.0000; stroke:none;">
<circle cx="46.2603" cy="19.0403" r="0.2000" /> 
</g>
<g style="fill:#ECECEC; fill-opacity:1.0000; stroke:none;">
<circle cx="47.1003" cy="24.1603" r="0.2000" /> 
</g>
<g style="fill:#ECECEC; fill-opacity:1.0000; stroke:none;">
<circle cx="44.6603" cy="0.6603" r="0.2000" /> 
</g>
<g style="fill:#ECECEC; fill-opacity:1.0000; stroke:none;">
<circle cx="42.2903" cy="0.6703" r="0.2000" /> 
</g>
<g style="fill:#ECECEC; fill-opacity:1.0000; stroke:none;">
<circle cx="17.9903" cy="15.4303" r="0.4000" /> 
</g>
<g style="fill:#ECECEC; fill-opacity:1.0000; stroke:none;">
<circle cx="44.6503" cy="24.5603" r="0.2000" /> 
</g>
<g style="fill:#ECECEC; fill-opacity:1.0000; stroke:none;">
<circle cx="43.9003" cy="5.9203" r="0.2000" /> 
</g>
<g style="fill:#ECECEC; fill-opacity:1.0000; stroke:none;">
<circle cx="32.7903" cy="14.9103" r="0.4000" /> 
</g>
<g style="fill:#ECECEC; fill-opacity:1.0000; stroke:none;">
<circle cx="46.2703" cy="28.1903" r="0.2000" /> 
</g>
<g style="fill:#ECECEC; fill-opacity:1.0000; stroke:none;">
<circle cx="44.6603" cy="11.0403" r="0.2000" /> 
</g>
<g style="fill:#ECECEC; fill-opacity:1.0000; stroke:none;">
<circle cx="47.0903" cy="16.1803" r="0.2000" /> 
</g>
<g style="fill:#ECECEC; fill-opacity:1.0000; stroke:none;">
<circle cx="47.1103" cy="5.4403" r="0.2000" /> 
</g>
<g style="fill:#ECECEC; fill-opacity:1.0000; stroke:none;">
<circle cx="47.0903" cy="13.7903" r="0.2000" /> 
</g>
<g style="fill:#ECECEC; fill-opacity:1.0000; stroke:none;">
<circle cx="44.6603" cy="26.1703" r="0.2000" /> 
</g>
<g style="fill:#ECECEC; fill-opacity:1.0000; stroke:none;">
<circle cx="45.4503" cy="11.0403" r="0.2000" /> 
</g>
<g style="fill:#ECECEC; fill-opacity:1.0000; stroke:none;">
<circle cx="47.0803" cy="8.6803" r="0.2000" /> 
</g>
<g style="fill:#ECECEC; fill-opacity:1.0000; stroke:none;">
<circle cx="45.5603" cy="29.4303" r="0.2000" /> 
</g>
<g style="fill:#ECECEC; fill-opacity:1.0000; stroke:none;">
<circle cx="44.6503" cy="17.0203" r="0.2000" /> 
</g>
<g style="fill:#ECECEC; fill-opacity:1.0000; stroke:none;">
<circle cx="39.9403" cy="0.6803" r="0.2000" /> 
</g>
<g style="fill:#ECECEC; fill-opacity:1.0000; stroke:none;">
<circle cx="43.0703" cy="17.0203" r="0.2000" /> 
</g>
<g style="fill:#ECECEC; fill-opacity:1.0000; stroke:none;">
<circle cx="45.4603" cy="2.2903" r="0.2000" /> 
</g>
<g style="fill:#ECECEC; fill-opacity:1.0000; stroke:none;">
<circle cx="39.9803" cy="29.4303" r="0.2000" /> 
</g>
<g style="fill:none; 
stroke:#C83434; stroke-width:0.3000; stroke-opacity:1; 
stroke-linecap:round; stroke-linejoin:round;">
<path d="M44.7374 12.4228
L44.7489 12.4113
" />
</g>
<g style="fill:none; 
stroke:#C83434; stroke-width:1.5240; stroke-opacity:1; 
stroke-linecap:round; stroke-linejoin:round;">
<path d="M42.0803 12.4228
L44.1254 12.4228
" />
</g>
<g style="fill:none; 
stroke:#C83434; stroke-width:0.2500; stroke-opacity:1; 
stroke-linecap:round; stroke-linejoin:round;">
<path d="M12.3603 18.9703
L12.3603 16.7598
" />
<path d="M13.0603 16.0603
L13.2228 15.8978
" />
<path d="M12.3603 16.7598
L13.0598 16.0603
" />
<path d="M16.1320 14.9003
L13.2228 14.9003
" />
<path d="M17.3453 16.8728
L17.3453 16.1135
" />
<path d="M13.2228 15.8978
L13.2228 14.9003
" />
<path d="M11.0903 20.2403
L12.3603 18.9703
" />
<path d="M13.0598 16.0603
L13.0603 16.0603
" />
<path d="M17.3453 16.1135
L16.1320 14.9003
" />
</g>
<g style="fill:none; 
stroke:#C83434; stroke-width:0.3000; stroke-opacity:1; 
stroke-linecap:round; stroke-linejoin:round;">
<path d="M11.4978 14.9003
L11.4978 16.0803
" />
</g>
<g style="fill:none; 
stroke:#C83434; stroke-width:0.2500; stroke-opacity:1; 
stroke-linecap:round; stroke-linejoin:round;">
<path d="M26.7903 14.8603
L27.4603 15.5303
" />
</g>
<g style="fill:none; 
stroke:#C83434; stroke-width:0.3000; stroke-opacity:1; 
stroke-linecap:round; stroke-linejoin:round;">
<path d="M34.0153 2.6553
L34.5203 2.1503
" />
<path d="M30.4828 18.5803
L30.4828 17.9578
" />
</g>
<g style="fill:none; 
stroke:#C83434; stroke-width:0.2500; stroke-opacity:1; 
stroke-linecap:round; stroke-linejoin:round;">
<path d="M31.1803 15.5428
L32.1578 15.5428
" />
</g>
<g style="fill:none; 
stroke:#C83434; stroke-width:0.7000; stroke-opacity:1; 
stroke-linecap:round; stroke-linejoin:round;">
<path d="M23.5728 19.8203
L23.5728 21.2778
" />
<path d="M36.5003 4.2003
L35.6803 3.3803
" />
</g>
<g style="fill:none; 
stroke:#C83434; stroke-width:0.3000; stroke-opacity:1; 
stroke-linecap:round; stroke-linejoin:round;">
<path d="M11.4978 16.0803
L11.4978 17.2303
" />
<path d="M36.8103 21.3203
L36.8103 22.3003
" />
<path d="M11.3995 14.9003
L11.4978 14.9003
" />
</g>
<g style="fill:none; 
stroke:#C83434; stroke-width:0.7000; stroke-opacity:1; 
stroke-linecap:round; stroke-linejoin:round;">
<path d="M17.9803 21.9803
L17.4603 22.5003
" />
<path d="M23.5728 21.2778
L23.1503 21.7003
" />
</g>
<g style="fill:none; 
stroke:#C83434; stroke-width:0.3000; stroke-opacity:1; 
stroke-linecap:round; stroke-linejoin:round;">
<path d="M33.9103 17.9503
L33.2903 17.3303
" />
<path d="M33.9103 19.0203
L33.9103 17.9503
" />
<path d="M18.6453 16.0853
L17.9903 15.4303
" />
</g>
<g style="fill:none; 
stroke:#C83434; stroke-width:0.7000; stroke-opacity:1; 
stroke-linecap:round; stroke-linejoin:round;">
<path d="M36.5003 5.1278
L36.5003 4.2003
" />
</g>
<g style="fill:none; 
stroke:#C83434; stroke-width:0.3000; stroke-opacity:1; 
stroke-linecap:round; stroke-linejoin:round;">
<path d="M32.3103 2.6553
L34.0153 2.6553
" />
<path d="M36.8103 22.3003
L37.6103 23.1003
" />
</g>
<g style="fill:none; 
stroke:#C83434; stroke-width:0.2500; stroke-opacity:1; 
stroke-linecap:round; stroke-linejoin:round;">
<path d="M26.7903 14.2428
L26.7903 14.8603
" />
</g>
<g style="fill:none; 
stroke:#C83434; stroke-width:0.3000; stroke-opacity:1; 
stroke-linecap:round; stroke-linejoin:round;">
<path d="M18.6453 16.8728
L18.6453 16.0853
" />
</g>
<g style="fill:none; 
stroke:#C83434; stroke-width:0.7000; stroke-opacity:1; 
stroke-linecap:round; stroke-linejoin:round;">
<path d="M17.9803 21.1228
L17.9803 21.9803
" />
</g>
<g style="fill:none; 
stroke:#C83434; stroke-width:0.3000; stroke-opacity:1; 
stroke-linecap:round; stroke-linejoin:round;">
<path d="M30.4828 21.7803
L30.4828 22.5578
" />
<path d="M30.4828 17.9578
L31.0603 17.3803
" />
<path d="M30.4828 22.5578
L30.0103 23.0303
" />
</g>
<g style="fill:none; 
stroke:#C83434; stroke-width:0.2500; stroke-opacity:1; 
stroke-linecap:round; stroke-linejoin:round;">
<path d="M32.1578 15.5428
L32.7903 14.9103
" />
<path d="M16.6953 16.1353
L16.0903 15.5303
" />
<path d="M14.7903 15.5303
L13.2228 17.0978
" />
<path d="M13.6303 20.2403
L13.2228 19.8328
" />
<path d="M16.0903 15.5303
L14.7903 15.5303
" />
<path d="M13.2228 19.8328
L13.2228 17.2303
" />
<path d="M13.2228 17.0978
L13.2228 17.2303
" />
<path d="M16.6953 16.8728
L16.6953 16.1353
" />
</g>
<g style="fill:none; 
stroke:#C83434; stroke-width:0.7000; stroke-opacity:1; 
stroke-linecap:round; stroke-linejoin:round;">
<path d="M15.5703 23.8603
L17.9003 23.8603
" />
<path d="M23.8228 8.4303
L23.8228 6.2778
" />
<path d="M10.4603 28.9703
L11.8603 27.5703
" />
<path d="M36.5003 8.2528
L38.9203 8.2528
" />
<path d="M11.8603 27.5703
L15.5703 23.8603
" />
<path d="M18.0803 28.9703
L19.4803 27.5703
" />
<path d="M23.8228 6.2778
L29.0403 1.0603
" />
</g>
<g style="fill:none; 
stroke:#C83434; stroke-width:0.3000; stroke-opacity:1; 
stroke-linecap:round; stroke-linejoin:round;">
<path d="M17.9953 16.8728
L17.9953 19.3828
" />
</g>
<g style="fill:none; 
stroke:#C83434; stroke-width:0.7000; stroke-opacity:1; 
stroke-linecap:round; stroke-linejoin:round;">
<path d="M39.0378 8.3703
L39.0378 4.9403
" />
<path d="M10.4603 28.9703
L18.0803 28.9703
" />
<path d="M15.3503 1.0603
L16.9503 2.6603
" />
<path d="M39.0378 4.9403
L39.0278 4.9303
" />
<path d="M6.7903 2.6603
L8.3903 1.0603
" />
<path d="M20.4478 19.8203
L18.4028 19.8203
" />
<path d="M2.8803 27.2303
L4.6203 28.9703
" />
<path d="M39.0378 8.3703
L39.0378 13.1378
" />
<path d="M38.9203 8.2528
L39.0378 8.3703
" />
<path d="M6.7903 4.2303
L6.7903 2.6603
" />
<path d="M20.4478 21.3128
L20.4478 19.8203
" />
<path d="M1.1003 9.9203
L6.7903 4.2303
" />
<path d="M15.3503 1.0603
L29.0403 1.0603
" />
<path d="M16.9503 7.8728
L17.5078 8.4303
" />
</g>
<g style="fill:none; 
stroke:#C83434; stroke-width:0.3000; stroke-opacity:1; 
stroke-linecap:round; stroke-linejoin:round;">
<path d="M17.9953 19.3828
L17.9803 19.3978
" />
</g>
<g style="fill:none; 
stroke:#C83434; stroke-width:0.7000; stroke-opacity:1; 
stroke-linecap:round; stroke-linejoin:round;">
<path d="M1.1003 25.4503
L1.1003 9.9203
" />
<path d="M2.8803 27.2303
L1.1003 25.4503
" />
<path d="M39.6348 13.7348
L42.0803 13.7348
" />
<path d="M35.1578 1.0603
L39.0278 4.9303
" />
<path d="M39.0378 13.1378
L39.6348 13.7348
" />
<path d="M29.0403 1.0603
L35.1578 1.0603
" />
<path d="M18.4028 19.8203
L17.9803 19.3978
" />
<path d="M16.9503 2.6603
L16.9503 7.8728
" />
<path d="M8.3903 1.0603
L15.3503 1.0603
" />
<path d="M4.6203 28.9703
L10.4603 28.9703
" />
<path d="M17.9003 23.8603
L20.4478 21.3128
" />
</g>
<g style="fill:none; 
stroke:#C83434; stroke-width:0.3000; stroke-opacity:1; 
stroke-linecap:round; stroke-linejoin:round;">
<path d="M33.5453 20.9553
L33.9103 21.3203
" />
<path d="M35.3103 16.1828
L35.3103 20.0652
" />
<path d="M29.5828 20.9553
L33.5453 20.9553
" />
<path d="M28.7578 21.7803
L29.5828 20.9553
" />
<path d="M34.0552 21.3203
L33.9103 21.3203
" />
<path d="M36.5403 14.9528
L35.3103 16.1828
" />
<path d="M35.3103 20.0652
L34.0552 21.3203
" />
<path d="M28.7578 18.5803
L28.7578 21.7803
" />
<path d="M36.8103 19.0203
L36.8103 17.5003
" />
<path d="M39.9478 21.7003
L39.9878 21.7403
" />
<path d="M39.3628 14.9528
L42.0803 14.9528
" />
<path d="M39.9478 18.5403
L39.9478 21.7003
" />
<path d="M39.3603 14.9503
L39.3628 14.9528
" />
<path d="M36.8103 17.5003
L39.3603 14.9503
" />
<path d="M36.8103 19.0203
L39.4678 19.0203
" />
<path d="M39.4678 19.0203
L39.9478 18.5403
" />
<path d="M32.3253 5.6453
L32.3103 5.6303
" />
<path d="M32.3253 8.4103
L32.3253 5.6453
" />
<path d="M2.2003 17.7003
L6.5103 17.7003
" />
<path d="M18.2103 14.4003
L19.9453 16.1353
" />
<path d="M3.0003 11.3203
L1.8003 12.5203
" />
<path d="M1.8003 17.3003
L2.2003 17.7003
" />
<path d="M14.4303 14.4003
L18.2103 14.4003
" />
<path d="M10.1353 14.0753
L14.1053 14.0753
" />
<path d="M14.1053 14.0753
L14.4303 14.4003
" />
<path d="M6.5103 17.7003
L10.1353 14.0753
" />
<path d="M1.8003 12.5203
L1.8003 17.3003
" />
<path d="M19.9453 16.1353
L19.9453 16.8728
" />
<path d="M21.8953 16.0782
L19.2174 13.4003
" />
<path d="M14.8603 13.4003
L14.5353 13.0753
" />
<path d="M14.5353 13.0753
L3.7853 13.0753
" />
<path d="M19.2174 13.4003
L14.8603 13.4003
" />
<path d="M21.8953 16.8728
L21.8953 16.0782
" />
<path d="M3.7853 13.0753
L3.0003 13.8603
" />
<path d="M3.0003 16.4003
L5.8253 13.5753
" />
<path d="M14.6374 13.9003
L19.0103 13.9003
" />
<path d="M19.0103 13.9003
L21.2453 16.1353
" />
<path d="M5.8253 13.5753
L14.3124 13.5753
" />
<path d="M14.3124 13.5753
L14.6374 13.9003
" />
<path d="M21.2453 16.1353
L21.2453 16.8728
" />
<path d="M16.6953 11.1478
L16.6953 10.0253
" />
<path d="M16.6953 10.0253
L9.3303 2.6603
" />
<path d="M17.3453 9.5861
L14.4103 6.6511
" />
<path d="M17.3453 11.1478
L17.3453 9.5861
" />
<path d="M14.4103 6.6511
L14.4103 2.6603
" />
<path d="M26.7903 12.4178
L36.5353 12.4178
" />
<path d="M21.2453 11.8717
L21.7914 12.4178
" />
<path d="M21.7914 12.4178
L26.7903 12.4178
" />
<path d="M21.2453 11.1478
L21.2453 11.8717
" />
<path d="M36.5353 12.4178
L36.5403 12.4228
" />
<path d="M21.4653 13.4053
L30.8678 13.4053
" />
<path d="M30.8678 13.4053
L31.1803 13.7178
" />
<path d="M36.5053 13.7178
L36.5403 13.6828
" />
<path d="M31.1803 13.7178
L36.5053 13.7178
" />
<path d="M19.9453 11.1478
L19.9453 11.8853
" />
<path d="M19.9453 11.8853
L21.4653 13.4053
" />
<path d="M20.5953 11.1478
L20.5953 10.4103
" />
<path d="M29.1553 9.7553
L30.5003 8.4103
" />
<path d="M20.5953 10.4103
L21.2503 9.7553
" />
<path d="M21.2503 9.7553
L29.1553 9.7553
" />
<path d="M19.3328 2.8178
L19.4903 2.6603
" />
<path d="M19.3328 8.4303
L19.3328 2.8178
" />
<path d="M17.9953 11.1478
L17.9953 9.7678
" />
<path d="M17.9953 9.7678
L19.3328 8.4303
" />
<path d="M21.1728 9.2553
L21.9978 8.4303
" />
<path d="M19.8003 9.2553
L21.1728 9.2553
" />
<path d="M18.6453 11.1478
L18.6453 10.4103
" />
<path d="M18.6453 10.4103
L19.8003 9.2553
" />
<path d="M21.9978 8.4303
L21.9978 2.6928
" />
<path d="M21.9978 2.6928
L22.0303 2.6603
" />
<path d="M20.5953 16.8728
L20.5953 17.6103
" />
<path d="M21.9703 22.5403
L16.9403 27.5703
" />
<path d="M21.9703 18.9853
L21.9703 22.5403
" />
<path d="M20.5953 17.6103
L21.9703 18.9853
" />
<path d="M16.0453 16.8728
L16.0453 20.8453
" />
<path d="M16.0453 20.8453
L9.3203 27.5703
" />
<path d="M21.8953 11.1478
L36.5353 11.1478
" />
<path d="M36.5353 11.1478
L36.5403 11.1428
" />
<path d="M19.4245 12.9003
L25.0003 18.4761
" />
<path d="M25.0003 18.4761
L25.0003 24.5903
" />
<path d="M25.0003 24.5903
L22.0203 27.5703
" />
<path d="M16.0453 12.1253
L16.8203 12.9003
" />
<path d="M16.0453 11.1478
L16.0453 12.1253
" />
<path d="M16.8203 12.9003
L19.4245 12.9003
" />
<path d="M25.5003 26.6303
L24.5603 27.5703
" />
<path d="M19.2953 11.9424
L25.5003 18.1474
" />
<path d="M25.5003 18.1474
L25.5003 26.6303
" />
<path d="M19.2953 11.1478
L19.2953 11.9424
" />
<path style="fill:#C83434; fill-opacity:1.0000; stroke:none;fill-rule:evenodd;"
d="M 46.3741,13.3705
46.3756,13.3708
46.3855,13.3729
46.3855,13.3729
46.3896,13.3729
46.4113,13.3703
47.2463,13.3703
47.3133,13.3900
47.3591,13.4428
47.3703,13.4943
47.3703,29.6158
47.3506,29.6828
47.2978,29.7286
47.2463,29.7398
39.6940,29.7398
39.6269,29.7201
39.5812,29.6673
39.5700,29.6159
39.5700,29.6158
39.5653,22.5398
39.5849,22.4728
39.6377,22.4270
39.6893,22.4158
40.3405,22.4158
40.3701,22.4130
40.4947,22.3694
40.6010,22.2910
40.6794,22.1847
40.7230,22.0601
40.7258,22.0305
40.7258,21.4500
40.7230,21.4204
40.6794,21.2958
40.6010,21.1896
40.6010,21.1896
40.4947,21.1112
40.4947,21.1112
40.3813,21.0715
40.3245,21.0307
40.2988,20.9658
40.2983,20.9544
40.2983,19.3121
40.3180,19.2451
40.3708,19.1993
40.3813,19.1951
40.4041,19.1871
40.4547,19.1694
40.5610,19.0910
40.6394,18.9847
40.6830,18.8601
40.6849,18.8396
40.6858,18.8305
40.6858,18.2500
40.6830,18.2204
40.6394,18.0958
40.5610,17.9896
40.5610,17.9896
40.4547,17.9112
40.3301,17.8675
40.3301,17.8675
40.3005,17.8648
40.3005,17.8648
39.6861,17.8648
39.6190,17.8451
39.5733,17.7923
39.5621,17.7409
39.5605,15.4483
39.5605,15.4274
39.5802,15.3603
39.6329,15.3145
39.6845,15.3033
40.9519,15.3033
41.0189,15.3230
41.0331,15.3336
41.0796,15.3739
41.0796,15.3739
41.0796,15.3739
41.1230,15.3937
41.2092,15.4331
41.2116,15.4334
41.3148,15.4483
41.3148,15.4483
42.8457,15.4483
42.8457,15.4483
42.9513,15.4331
43.0809,15.3739
43.1886,15.2806
43.2656,15.1607
43.3058,15.0240
43.3058,14.8815
43.2656,14.7448
43.1886,14.6250
43.0809,14.5316
43.0809,14.5316
42.9513,14.4725
42.8590,14.4592
42.8457,14.4573
42.3954,14.4573
42.3284,14.4376
42.2826,14.3848
42.2727,14.3156
42.3017,14.2521
42.3460,14.2195
42.3690,14.2096
42.3690,14.2096
42.3690,14.2096
42.3733,14.2061
42.4377,14.1790
42.4515,14.1783
42.8457,14.1783
42.8457,14.1783
42.9513,14.1631
43.0809,14.1039
43.1886,14.0106
43.2656,13.8907
43.3058,13.7540
43.3058,13.6115
43.2860,13.5442
43.2860,13.4743
43.3238,13.4156
43.3873,13.3865
43.4050,13.3853
44.1742,13.3853
44.3264,13.3698
44.3265,13.3703
44.3406,13.3688
45.2250,13.3688
45.2323,13.3681
45.2384,13.3678
45.7181,13.3678
46.3483,13.3678
Z" /> 
<path style="fill:#C83434; fill-opacity:1.0000; stroke:none;fill-rule:evenodd;"
d="M 47.2463,0.3978
47.3134,0.4176
47.3591,0.4704
47.3703,0.5218
47.3703,11.3263
47.3506,11.3933
47.2978,11.4391
47.2463,11.4503
46.4030,11.4503
46.3994,11.4498
46.3768,11.4495
46.3694,11.4503
46.3197,11.4503
46.3149,11.4527
46.2924,11.4548
45.2384,11.4548
45.2323,11.4545
45.2250,11.4537
45.2250,11.4537
43.9155,11.4537
43.9155,11.4537
43.8946,11.4579
43.8704,11.4603
42.0315,11.4603
41.8855,11.4751
41.6988,11.5337
41.6987,11.5337
41.5276,11.6287
41.5276,11.6287
41.3791,11.7562
41.2670,11.9009
41.2167,11.9374
41.2173,11.9388
41.0796,12.0016
41.0796,12.0016
40.9719,12.0950
40.8949,12.2148
40.8949,12.2148
40.8548,12.3515
40.8548,12.4940
40.8949,12.6307
40.9719,12.7506
41.0796,12.8439
41.2092,12.9031
41.2092,12.9031
41.2173,12.9068
41.2167,12.9082
41.2671,12.9406
41.2786,12.9562
41.3026,12.9947
41.3213,13.0620
41.3007,13.1287
41.2473,13.1738
41.1974,13.1843
39.9142,13.1843
39.8471,13.1646
39.8265,13.1480
39.6246,12.9461
39.5911,12.8847
39.5883,12.8584
39.5883,9.0299
39.6080,8.9628
39.6386,8.9301
39.6510,8.9210
39.7294,8.8147
39.7730,8.6901
39.7758,8.6605
39.7758,8.0800
39.7730,8.0504
39.7294,7.9258
39.6908,7.8735
39.6510,7.8196
39.6510,7.8196
39.6386,7.8104
39.5964,7.7548
39.5883,7.7107
39.5883,5.5825
39.6080,5.5154
39.6386,5.4827
39.6410,5.4810
39.7194,5.3747
39.7630,5.2501
39.7658,5.2205
39.7658,4.6400
39.7630,4.6104
39.7194,4.4858
39.6410,4.3796
39.6034,4.3518
39.5612,4.2962
39.5531,4.2522
39.5506,0.5173
39.5702,0.4502
39.6230,0.4044
39.6746,0.3932
Z" /> 
</g>
<g style="fill:#FFFFFF; fill-opacity:1.0000; stroke:none;">
<circle cx="44.7103" cy="29.4303" r="0.1910" /> 
</g>
<g style="fill:#FFFFFF; fill-opacity:1.0000; stroke:none;">
<circle cx="47.0903" cy="7.8703" r="0.1910" /> 
</g>
<g style="fill:#FFFFFF; fill-opacity:1.0000; stroke:none;">
<circle cx="42.2903" cy="2.2903" r="0.1910" /> 
</g>
<g style="fill:#FFFFFF; fill-opacity:1.0000; stroke:none;">
<circle cx="47.1103" cy="21.7603" r="0.1910" /> 
</g>
<g style="fill:#FFFFFF; fill-opacity:1.0000; stroke:none;">
<circle cx="43.1003" cy="28.1903" r="0.1910" /> 
</g>
<g style="fill:#FFFFFF; fill-opacity:1.0000; stroke:none;">
<circle cx="47.0903" cy="10.2603" r="0.1910" /> 
</g>
<g style="fill:#FFFFFF; fill-opacity:1.0000; stroke:none;">
<circle cx="47.1003" cy="6.2703" r="0.1910" /> 
</g>
<g style="fill:#FFFFFF; fill-opacity:1.0000; stroke:none;">
<circle cx="47.1203" cy="3.8403" r="0.1910" /> 
</g>
<g style="fill:#FFFFFF; fill-opacity:1.0000; stroke:none;">
<circle cx="47.1103" cy="19.3703" r="0.1910" /> 
</g>
<g style="fill:#FFFFFF; fill-opacity:1.0000; stroke:none;">
<circle cx="41.5003" cy="0.6803" r="0.1910" /> 
</g>
<g style="fill:#FFFFFF; fill-opacity:1.0000; stroke:none;">
<circle cx="43.8703" cy="11.0503" r="0.1910" /> 
</g>
<g style="fill:#FFFFFF; fill-opacity:1.0000; stroke:none;">
<circle cx="42.3203" cy="9.6903" r="0.1910" /> 
</g>
<g style="fill:#FFFFFF; fill-opacity:1.0000; stroke:none;">
<circle cx="41.5403" cy="24.5603" r="0.1910" /> 
</g>
<g style="fill:#FFFFFF; fill-opacity:1.0000; stroke:none;">
<circle cx="47.0903" cy="25.7603" r="0.1910" /> 
</g>
<g style="fill:#FFFFFF; fill-opacity:1.0000; stroke:none;">
<circle cx="42.3203" cy="5.9203" r="0.1910" /> 
</g>
<g style="fill:#FFFFFF; fill-opacity:1.0000; stroke:none;">
<circle cx="42.3203" cy="7.8903" r="0.1910" /> 
</g>
<g style="fill:#FFFFFF; fill-opacity:1.0000; stroke:none;">
<circle cx="46.2403" cy="24.5603" r="0.1910" /> 
</g>
<g style="fill:#FFFFFF; fill-opacity:1.0000; stroke:none;">
<circle cx="45.4903" cy="7.8903" r="0.1910" /> 
</g>
<g style="fill:#FFFFFF; fill-opacity:1.0000; stroke:none;">
<circle cx="47.1003" cy="18.5803" r="0.1910" /> 
</g>
<g style="fill:#FFFFFF; fill-opacity:1.0000; stroke:none;">
<circle cx="47.1003" cy="14.5803" r="0.1910" /> 
</g>
<g style="fill:#FFFFFF; fill-opacity:1.0000; stroke:none;">
<circle cx="47.1103" cy="20.1603" r="0.1910" /> 
</g>
<g style="fill:#FFFFFF; fill-opacity:1.0000; stroke:none;">
<circle cx="47.1203" cy="4.6303" r="0.1910" /> 
</g>
<g style="fill:#FFFFFF; fill-opacity:1.0000; stroke:none;">
<circle cx="41.5403" cy="22.8203" r="0.1910" /> 
</g>
<g style="fill:#FFFFFF; fill-opacity:1.0000; stroke:none;">
<circle cx="43.0803" cy="0.6703" r="0.1910" /> 
</g>
<g style="fill:#FFFFFF; fill-opacity:1.0000; stroke:none;">
<circle cx="47.1103" cy="3.0503" r="0.1910" /> 
</g>
<g style="fill:#FFFFFF; fill-opacity:1.0000; stroke:none;">
<circle cx="30.0103" cy="23.0303" r="0.2000" /> 
</g>
<g style="fill:#FFFFFF; fill-opacity:1.0000; stroke:none;">
<circle cx="44.6703" cy="22.8103" r="0.1910" /> 
</g>
<g style="fill:#FFFFFF; fill-opacity:1.0000; stroke:none;">
<circle cx="44.6403" cy="15.4103" r="0.1910" /> 
</g>
<g style="fill:#FFFFFF; fill-opacity:1.0000; stroke:none;">
<circle cx="39.9603" cy="24.5603" r="0.1910" /> 
</g>
<g style="fill:#FFFFFF; fill-opacity:1.0000; stroke:none;">
<circle cx="47.0903" cy="23.3703" r="0.1910" /> 
</g>
<g style="fill:#FFFFFF; fill-opacity:1.0000; stroke:none;">
<circle cx="43.8703" cy="13.7803" r="0.1910" /> 
</g>
<g style="fill:#FFFFFF; fill-opacity:1.0000; stroke:none;">
<circle cx="45.4703" cy="0.6703" r="0.1910" /> 
</g>
<g style="fill:#FFFFFF; fill-opacity:1.0000; stroke:none;">
<circle cx="43.9003" cy="7.8903" r="0.1910" /> 
</g>
<g style="fill:#FFFFFF; fill-opacity:1.0000; stroke:none;">
<circle cx="47.1003" cy="26.5503" r="0.1910" /> 
</g>
<g style="fill:#FFFFFF; fill-opacity:1.0000; stroke:none;">
<circle cx="33.2903" cy="17.3303" r="0.2000" /> 
</g>
<g style="fill:#FFFFFF; fill-opacity:1.0000; stroke:none;">
<circle cx="44.6803" cy="28.1903" r="0.1910" /> 
</g>
<g style="fill:#FFFFFF; fill-opacity:1.0000; stroke:none;">
<circle cx="40.7303" cy="3.9003" r="0.1910" /> 
</g>
<g style="fill:#FFFFFF; fill-opacity:1.0000; stroke:none;">
<circle cx="39.9303" cy="26.2203" r="0.1910" /> 
</g>
<g style="fill:#FFFFFF; fill-opacity:1.0000; stroke:none;">
<circle cx="47.1103" cy="2.2603" r="0.1910" /> 
</g>
<g style="fill:#FFFFFF; fill-opacity:1.0000; stroke:none;">
<circle cx="42.3203" cy="29.4303" r="0.1910" /> 
</g>
<g style="fill:#FFFFFF; fill-opacity:1.0000; stroke:none;">
<circle cx="46.2603" cy="21.0103" r="0.1910" /> 
</g>
<g style="fill:#FFFFFF; fill-opacity:1.0000; stroke:none;">
<circle cx="43.0803" cy="26.1703" r="0.1910" /> 
</g>
<g style="fill:#FFFFFF; fill-opacity:1.0000; stroke:none;">
<circle cx="47.1003" cy="7.0403" r="0.1910" /> 
</g>
<g style="fill:#FFFFFF; fill-opacity:1.0000; stroke:none;">
<circle cx="39.9903" cy="28.1903" r="0.1910" /> 
</g>
<g style="fill:#FFFFFF; fill-opacity:1.0000; stroke:none;">
<circle cx="47.1003" cy="1.4703" r="0.1910" /> 
</g>
<g style="fill:#FFFFFF; fill-opacity:1.0000; stroke:none;">
<circle cx="45.4703" cy="3.9003" r="0.1910" /> 
</g>
<g style="fill:#FFFFFF; fill-opacity:1.0000; stroke:none;">
<circle cx="46.2303" cy="15.4103" r="0.1910" /> 
</g>
<g style="fill:#FFFFFF; fill-opacity:1.0000; stroke:none;">
<circle cx="43.8703" cy="0.6603" r="0.1910" /> 
</g>
<g style="fill:#FFFFFF; fill-opacity:1.0000; stroke:none;">
<circle cx="40.7503" cy="9.6903" r="0.1910" /> 
</g>
<g style="fill:#FFFFFF; fill-opacity:1.0000; stroke:none;">
<circle cx="45.4503" cy="13.7703" r="0.1910" /> 
</g>
<g style="fill:#FFFFFF; fill-opacity:1.0000; stroke:none;">
<circle cx="40.7503" cy="5.9203" r="0.1910" /> 
</g>
<g style="fill:#FFFFFF; fill-opacity:1.0000; stroke:none;">
<circle cx="47.0803" cy="9.4703" r="0.1910" /> 
</g>
<g style="fill:#FFFFFF; fill-opacity:1.0000; stroke:none;">
<circle cx="47.1003" cy="16.9703" r="0.1910" /> 
</g>
<g style="fill:#FFFFFF; fill-opacity:1.0000; stroke:none;">
<circle cx="44.6603" cy="13.7703" r="0.1910" /> 
</g>
<g style="fill:#FFFFFF; fill-opacity:1.0000; stroke:none;">
<circle cx="45.4903" cy="5.9203" r="0.1910" /> 
</g>
<g style="fill:#FFFFFF; fill-opacity:1.0000; stroke:none;">
<circle cx="47.1003" cy="20.9703" r="0.1910" /> 
</g>
<g style="fill:#FFFFFF; fill-opacity:1.0000; stroke:none;">
<circle cx="42.3003" cy="3.9003" r="0.1910" /> 
</g>
<g style="fill:#FFFFFF; fill-opacity:1.0000; stroke:none;">
<circle cx="43.0903" cy="22.8103" r="0.1910" /> 
</g>
<g style="fill:#FFFFFF; fill-opacity:1.0000; stroke:none;">
<circle cx="47.0903" cy="11.0603" r="0.1910" /> 
</g>
<g style="fill:#FFFFFF; fill-opacity:1.0000; stroke:none;">
<circle cx="43.1303" cy="29.4403" r="0.1910" /> 
</g>
<g style="fill:#FFFFFF; fill-opacity:1.0000; stroke:none;">
<circle cx="43.0703" cy="24.5603" r="0.1910" /> 
</g>
<g style="fill:#FFFFFF; fill-opacity:1.0000; stroke:none;">
<circle cx="40.7203" cy="2.2903" r="0.1910" /> 
</g>
<g style="fill:#FFFFFF; fill-opacity:1.0000; stroke:none;">
<circle cx="47.1003" cy="28.9803" r="0.1910" /> 
</g>
<g style="fill:#FFFFFF; fill-opacity:1.0000; stroke:none;">
<circle cx="47.1003" cy="17.7603" r="0.1910" /> 
</g>
<g style="fill:#FFFFFF; fill-opacity:1.0000; stroke:none;">
<circle cx="40.7403" cy="29.4403" r="0.1910" /> 
</g>
<g style="fill:#FFFFFF; fill-opacity:1.0000; stroke:none;">
<circle cx="46.2603" cy="13.7803" r="0.1910" /> 
</g>
<g style="fill:#FFFFFF; fill-opacity:1.0000; stroke:none;">
<circle cx="46.2603" cy="11.0503" r="0.1910" /> 
</g>
<g style="fill:#FFFFFF; fill-opacity:1.0000; stroke:none;">
<circle cx="37.6103" cy="23.1003" r="0.2000" /> 
</g>
<g style="fill:#FFFFFF; fill-opacity:1.0000; stroke:none;">
<circle cx="43.8703" cy="2.2903" r="0.1910" /> 
</g>
<g style="fill:#FFFFFF; fill-opacity:1.0000; stroke:none;">
<circle cx="46.2403" cy="17.0203" r="0.1910" /> 
</g>
<g style="fill:#FFFFFF; fill-opacity:1.0000; stroke:none;">
<circle cx="11.4978" cy="16.0803" r="0.2000" /> 
</g>
<g style="fill:#FFFFFF; fill-opacity:1.0000; stroke:none;">
<circle cx="39.9603" cy="22.8203" r="0.1910" /> 
</g>
<g style="fill:#FFFFFF; fill-opacity:1.0000; stroke:none;">
<circle cx="23.1503" cy="21.7003" r="0.2000" /> 
</g>
<g style="fill:#FFFFFF; fill-opacity:1.0000; stroke:none;">
<circle cx="45.4903" cy="9.6903" r="0.1910" /> 
</g>
<g style="fill:#FFFFFF; fill-opacity:1.0000; stroke:none;">
<circle cx="40.7103" cy="0.6803" r="0.1910" /> 
</g>
<g style="fill:#FFFFFF; fill-opacity:1.0000; stroke:none;">
<circle cx="43.8803" cy="3.9003" r="0.1910" /> 
</g>
<g style="fill:#FFFFFF; fill-opacity:1.0000; stroke:none;">
<circle cx="31.0603" cy="17.3803" r="0.2000" /> 
</g>
<g style="fill:#FFFFFF; fill-opacity:1.0000; stroke:none;">
<circle cx="35.6803" cy="3.3803" r="0.2000" /> 
</g>
<g style="fill:#FFFFFF; fill-opacity:1.0000; stroke:none;">
<circle cx="43.9003" cy="9.6903" r="0.1910" /> 
</g>
<g style="fill:#FFFFFF; fill-opacity:1.0000; stroke:none;">
<circle cx="41.5303" cy="26.1903" r="0.1910" /> 
</g>
<g style="fill:#FFFFFF; fill-opacity:1.0000; stroke:none;">
<circle cx="43.0903" cy="19.0403" r="0.1910" /> 
</g>
<g style="fill:#FFFFFF; fill-opacity:1.0000; stroke:none;">
<circle cx="44.6703" cy="21.0103" r="0.1910" /> 
</g>
<g style="fill:#FFFFFF; fill-opacity:1.0000; stroke:none;">
<circle cx="46.3003" cy="0.6803" r="0.1910" /> 
</g>
<g style="fill:#FFFFFF; fill-opacity:1.0000; stroke:none;">
<circle cx="47.1003" cy="28.1903" r="0.1910" /> 
</g>
<g style="fill:#FFFFFF; fill-opacity:1.0000; stroke:none;">
<circle cx="27.4603" cy="15.5303" r="0.2000" /> 
</g>
<g style="fill:#FFFFFF; fill-opacity:1.0000; stroke:none;">
<circle cx="46.2603" cy="22.8103" r="0.1910" /> 
</g>
<g style="fill:#FFFFFF; fill-opacity:1.0000; stroke:none;">
<circle cx="41.5703" cy="28.1903" r="0.1910" /> 
</g>
<g style="fill:#FFFFFF; fill-opacity:1.0000; stroke:none;">
<circle cx="47.1003" cy="0.6803" r="0.1910" /> 
</g>
<g style="fill:#FFFFFF; fill-opacity:1.0000; stroke:none;">
<circle cx="17.4603" cy="22.5003" r="0.2000" /> 
</g>
<g style="fill:#FFFFFF; fill-opacity:1.0000; stroke:none;">
<circle cx="34.5203" cy="2.1503" r="0.2000" /> 
</g>
<g style="fill:#FFFFFF; fill-opacity:1.0000; stroke:none;">
<circle cx="47.1003" cy="24.9503" r="0.1910" /> 
</g>
<g style="fill:#FFFFFF; fill-opacity:1.0000; stroke:none;">
<circle cx="47.1003" cy="15.3703" r="0.1910" /> 
</g>
<g style="fill:#FFFFFF; fill-opacity:1.0000; stroke:none;">
<circle cx="46.3503" cy="29.4303" r="0.1910" /> 
</g>
<g style="fill:#FFFFFF; fill-opacity:1.0000; stroke:none;">
<circle cx="47.1103" cy="22.5503" r="0.1910" /> 
</g>
<g style="fill:#FFFFFF; fill-opacity:1.0000; stroke:none;">
<circle cx="43.9203" cy="29.4303" r="0.1910" /> 
</g>
<g style="fill:#FFFFFF; fill-opacity:1.0000; stroke:none;">
<circle cx="44.6703" cy="19.0403" r="0.1910" /> 
</g>
<g style="fill:#FFFFFF; fill-opacity:1.0000; stroke:none;">
<circle cx="46.2503" cy="26.1703" r="0.1910" /> 
</g>
<g style="fill:#FFFFFF; fill-opacity:1.0000; stroke:none;">
<circle cx="47.1003" cy="27.3403" r="0.1910" /> 
</g>
<g style="fill:#FFFFFF; fill-opacity:1.0000; stroke:none;">
<circle cx="41.5303" cy="29.4303" r="0.1910" /> 
</g>
<g style="fill:#FFFFFF; fill-opacity:1.0000; stroke:none;">
<circle cx="43.0903" cy="21.0103" r="0.1910" /> 
</g>
<g style="fill:#FFFFFF; fill-opacity:1.0000; stroke:none;">
<circle cx="46.2603" cy="19.0403" r="0.1910" /> 
</g>
<g style="fill:#FFFFFF; fill-opacity:1.0000; stroke:none;">
<circle cx="47.1003" cy="24.1603" r="0.1910" /> 
</g>
<g style="fill:#FFFFFF; fill-opacity:1.0000; stroke:none;">
<circle cx="44.6603" cy="0.6603" r="0.1910" /> 
</g>
<g style="fill:#FFFFFF; fill-opacity:1.0000; stroke:none;">
<circle cx="42.2903" cy="0.6703" r="0.1910" /> 
</g>
<g style="fill:#FFFFFF; fill-opacity:1.0000; stroke:none;">
<circle cx="17.9903" cy="15.4303" r="0.2000" /> 
</g>
<g style="fill:#FFFFFF; fill-opacity:1.0000; stroke:none;">
<circle cx="44.6503" cy="24.5603" r="0.1910" /> 
</g>
<g style="fill:#FFFFFF; fill-opacity:1.0000; stroke:none;">
<circle cx="43.9003" cy="5.9203" r="0.1910" /> 
</g>
<g style="fill:#FFFFFF; fill-opacity:1.0000; stroke:none;">
<circle cx="32.7903" cy="14.9103" r="0.2000" /> 
</g>
<g style="fill:#FFFFFF; fill-opacity:1.0000; stroke:none;">
<circle cx="46.2703" cy="28.1903" r="0.1910" /> 
</g>
<g style="fill:#FFFFFF; fill-opacity:1.0000; stroke:none;">
<circle cx="44.6603" cy="11.0403" r="0.1910" /> 
</g>
<g style="fill:#FFFFFF; fill-opacity:1.0000; stroke:none;">
<circle cx="47.0903" cy="16.1803" r="0.1910" /> 
</g>
<g style="fill:#FFFFFF; fill-opacity:1.0000; stroke:none;">
<circle cx="47.1103" cy="5.4403" r="0.1910" /> 
</g>
<g style="fill:#FFFFFF; fill-opacity:1.0000; stroke:none;">
<circle cx="47.0903" cy="13.7903" r="0.1910" /> 
</g>
<g style="fill:#FFFFFF; fill-opacity:1.0000; stroke:none;">
<circle cx="44.6603" cy="26.1703" r="0.1910" /> 
</g>
<g style="fill:#FFFFFF; fill-opacity:1.0000; stroke:none;">
<circle cx="45.4503" cy="11.0403" r="0.1910" /> 
</g>
<g style="fill:#FFFFFF; fill-opacity:1.0000; stroke:none;">
<circle cx="47.0803" cy="8.6803" r="0.1910" /> 
</g>
<g style="fill:#FFFFFF; fill-opacity:1.0000; stroke:none;">
<circle cx="45.5603" cy="29.4303" r="0.1910" /> 
</g>
<g style="fill:#FFFFFF; fill-opacity:1.0000; stroke:none;">
<circle cx="44.6503" cy="17.0203" r="0.1910" /> 
</g>
<g style="fill:#FFFFFF; fill-opacity:1.0000; stroke:none;">
<circle cx="39.9403" cy="0.6803" r="0.1910" /> 
</g>
<g style="fill:#FFFFFF; fill-opacity:1.0000; stroke:none;">
<circle cx="43.0703" cy="17.0203" r="0.1910" /> 
</g>
<g style="fill:#FFFFFF; fill-opacity:1.0000; stroke:none;">
<circle cx="45.4603" cy="2.2903" r="0.1910" /> 
</g>
<g style="fill:#FFFFFF; fill-opacity:1.0000; stroke:none;">
<circle cx="39.9803" cy="29.4303" r="0.1910" /> 
</g>
<g style="fill:#FFFFFF; fill-opacity:1.0000; stroke:none;">
<circle cx="6.7803" cy="27.5703" r="0.5000" /> 
</g>
<g style="fill:#FFFFFF; fill-opacity:1.0000; stroke:none;">
<circle cx="9.3203" cy="27.5703" r="0.5000" /> 
</g>
<g style="fill:#FFFFFF; fill-opacity:1.0000; stroke:none;">
<circle cx="11.8603" cy="27.5703" r="0.5000" /> 
</g>
<g style="fill:#FFFFFF; fill-opacity:1.0000; stroke:none;">
<circle cx="14.4003" cy="27.5703" r="0.5000" /> 
</g>
<g style="fill:#FFFFFF; fill-opacity:1.0000; stroke:none;">
<circle cx="16.9403" cy="27.5703" r="0.5000" /> 
</g>
<g style="fill:#FFFFFF; fill-opacity:1.0000; stroke:none;">
<circle cx="19.4803" cy="27.5703" r="0.5000" /> 
</g>
<g style="fill:#FFFFFF; fill-opacity:1.0000; stroke:none;">
<circle cx="22.0203" cy="27.5703" r="0.5000" /> 
</g>
<g style="fill:#FFFFFF; fill-opacity:1.0000; stroke:none;">
<circle cx="24.5603" cy="27.5703" r="0.5000" /> 
</g>
<g style="fill:#FFFFFF; fill-opacity:1.0000; stroke:none;">
<circle cx="2.8803" cy="2.7803" r="1.1000" /> 
</g>
<g style="fill:#FFFFFF; fill-opacity:1.0000; stroke:none;">
<circle cx="11.0903" cy="20.2403" r="0.2500" /> 
</g>
<g style="fill:#FFFFFF; fill-opacity:1.0000; stroke:none;">
<circle cx="13.6303" cy="20.2403" r="0.2500" /> 
</g>
<g style="fill:#FFFFFF; fill-opacity:1.0000; stroke:none;">
<circle cx="6.7903" cy="2.6603" r="0.5000" /> 
</g>
<g style="fill:#FFFFFF; fill-opacity:1.0000; stroke:none;">
<circle cx="9.3303" cy="2.6603" r="0.5000" /> 
</g>
<g style="fill:#FFFFFF; fill-opacity:1.0000; stroke:none;">
<circle cx="11.8703" cy="2.6603" r="0.5000" /> 
</g>
<g style="fill:#FFFFFF; fill-opacity:1.0000; stroke:none;">
<circle cx="14.4103" cy="2.6603" r="0.5000" /> 
</g>
<g style="fill:#FFFFFF; fill-opacity:1.0000; stroke:none;">
<circle cx="16.9503" cy="2.6603" r="0.5000" /> 
</g>
<g style="fill:#FFFFFF; fill-opacity:1.0000; stroke:none;">
<circle cx="19.4903" cy="2.6603" r="0.5000" /> 
</g>
<g style="fill:#FFFFFF; fill-opacity:1.0000; stroke:none;">
<circle cx="22.0303" cy="2.6603" r="0.5000" /> 
</g>
<g style="fill:#FFFFFF; fill-opacity:1.0000; stroke:none;">
<circle cx="24.5703" cy="2.6603" r="0.5000" /> 
</g>
<g style="fill:#FFFFFF; fill-opacity:1.0000; stroke:none;">
<circle cx="48.4103" cy="19.3503" r="0.1778" /> 
</g>
<g style="fill:#FFFFFF; fill-opacity:1.0000; stroke:none;">
<circle cx="3.0003" cy="11.3203" r="0.5000" /> 
</g>
<g style="fill:#FFFFFF; fill-opacity:1.0000; stroke:none;">
<circle cx="3.0003" cy="13.8603" r="0.5000" /> 
</g>
<g style="fill:#FFFFFF; fill-opacity:1.0000; stroke:none;">
<circle cx="3.0003" cy="16.4003" r="0.5000" /> 
</g>
<g style="fill:#FFFFFF; fill-opacity:1.0000; stroke:none;">
<circle cx="3.0003" cy="18.9403" r="0.5000" /> 
</g>
<g style="fill:#FFFFFF; fill-opacity:1.0000; stroke:none;">
<circle cx="2.8803" cy="27.2303" r="1.1000" /> 
</g>
<g style="fill:none; 
stroke:#D0D2CD; stroke-width:0.1000; stroke-opacity:1; 
stroke-linecap:round; stroke-linejoin:round;">
<path d="M3.0403 0.0503 A2.9503 2.9503 0.0 0 0 0.0514 3.0902" />
<path d="M0.0602 27.0302 A3.0401 3.0401 0.0 0 0 3.0803 30.0603" />
<path d="M0.0503 3.0903
L0.0503 27.0303
" />
<path d="M55.1935 3.0901
L55.2403 27.0903
" />
<path d="M55.1935 3.0901 A3.0033 3.0033 0.0 0 0 52.0503 0.0803" />
<path d="M3.0403 0.0503
L52.0503 0.0803
" />
<path d="M3.0803 30.0603
L52.0603 30.0603
" />
<path d="M52.0603 30.0603 A2.9954 2.9954 0.0 0 0 55.2356 27.0902" />
</g> 
</svg>
